<svg width="580.5" height="83" viewBox="0 0 580.5 83" xmlns="http://www.w3.org/2000/svg"><g id="svgGroup" stroke-linecap="round" fill-rule="evenodd" font-size="9pt" stroke="#000" stroke-width="0.95mm" fill="none" style="stroke:#000;stroke-width:0.95mm;fill:none"><path d="M 111 66.5 L 91 66.5 L 91 44.4 L 76 44.4 L 76 66.5 L 56 66.5 L 56 4 L 76 4 L 76 26.1 L 91 26.1 L 91 4 L 111 4 L 111 66.5 Z M 137.7 61.3 L 127.2 61.3 L 116 16.5 L 136 16.5 L 141.5 49 L 142.5 49 L 148 16.5 L 168 16.5 L 155.5 66.5 A 52.696 52.696 0 0 1 153.914 71.251 Q 151.584 77.19 148.5 79.65 A 13.741 13.741 0 0 1 144.117 81.94 Q 140.844 83 136.4 83 L 117 83 L 117 70 L 126.4 68.2 A 58.123 58.123 0 0 0 129.5 67.428 Q 134.007 66.162 135.719 64.672 A 4.984 4.984 0 0 0 135.8 64.6 A 8.917 8.917 0 0 0 137.459 62.53 A 10.533 10.533 0 0 0 137.8 61.9 L 137.7 61.3 Z M 31.5 2.7 L 31.5 8.5 L 28.6 17.4 L 36.1 11.7 L 41.5 10.1 A 14.732 14.732 0 0 1 41.848 10.018 Q 42.298 9.917 42.53 9.903 A 1.162 1.162 0 0 1 42.6 9.9 A 2.152 2.152 0 0 1 44.259 10.691 Q 44.876 11.385 45.297 12.691 A 10.042 10.042 0 0 1 45.3 12.7 L 47.6 19.8 A 9.335 9.335 0 0 1 47.844 20.658 Q 48 21.338 48 21.9 A 3.198 3.198 0 0 1 47.877 22.823 Q 47.569 23.844 46.498 24.235 A 3.239 3.239 0 0 1 46.3 24.3 L 40.7 25.9 L 31.2 25.9 L 39 31.4 L 42.3 36.1 Q 42.806 36.944 42.885 37.717 A 2.784 2.784 0 0 1 42.9 38 A 1.224 1.224 0 0 1 42.755 38.536 Q 42.402 39.249 41.193 40.261 A 17.053 17.053 0 0 1 40.9 40.5 L 34.9 44.9 A 7.906 7.906 0 0 1 34.08 45.48 Q 33.085 46.087 32.238 46.1 A 2.415 2.415 0 0 1 32.2 46.1 A 2.295 2.295 0 0 1 30.46 45.317 A 3.418 3.418 0 0 1 30.2 45 L 26 40.2 L 23.8 32 L 21.2 40.3 L 17.8 44.9 Q 17 46 15.85 46 Q 14.7 46 13.2 44.9 L 7.1 40.5 A 12.069 12.069 0 0 1 6.295 39.877 Q 5.07 38.834 5.004 38.04 A 1.082 1.082 0 0 1 5 37.95 Q 5 36.9 5.6 36.1 L 9.1 31.4 L 16.4 26.1 L 7.3 26.1 L 1.8 24.3 Q 0.271 23.876 0.041 22.441 A 3.411 3.411 0 0 1 0 21.9 Q 0 21.092 0.323 20.122 A 8.54 8.54 0 0 1 0.4 19.9 L 2.7 12.7 A 8.924 8.924 0 0 1 3.162 11.588 Q 3.767 10.391 4.565 9.995 A 1.856 1.856 0 0 1 5.4 9.8 Q 5.669 9.8 6.028 9.891 A 5.165 5.165 0 0 1 6.4 10 L 12 11.8 L 19.4 17.3 L 16.5 8.5 L 16.5 2.7 Q 16.5 0 20.2 0 L 27.8 0 A 7.47 7.47 0 0 1 29.127 0.107 Q 31.5 0.538 31.5 2.7 Z M 564 2.7 L 564 8.5 L 561.1 17.4 L 568.6 11.7 L 574 10.1 A 14.732 14.732 0 0 1 574.348 10.018 Q 574.798 9.917 575.03 9.903 A 1.162 1.162 0 0 1 575.1 9.9 A 2.152 2.152 0 0 1 576.759 10.691 Q 577.376 11.385 577.797 12.691 A 10.042 10.042 0 0 1 577.8 12.7 L 580.1 19.8 A 9.335 9.335 0 0 1 580.344 20.658 Q 580.5 21.338 580.5 21.9 A 3.198 3.198 0 0 1 580.377 22.823 Q 580.069 23.844 578.998 24.235 A 3.239 3.239 0 0 1 578.8 24.3 L 573.2 25.9 L 563.7 25.9 L 571.5 31.4 L 574.8 36.1 Q 575.306 36.944 575.385 37.717 A 2.784 2.784 0 0 1 575.4 38 A 1.224 1.224 0 0 1 575.255 38.536 Q 574.902 39.249 573.693 40.261 A 17.053 17.053 0 0 1 573.4 40.5 L 567.4 44.9 A 7.906 7.906 0 0 1 566.58 45.48 Q 565.585 46.087 564.738 46.1 A 2.415 2.415 0 0 1 564.7 46.1 A 2.295 2.295 0 0 1 562.96 45.317 A 3.418 3.418 0 0 1 562.7 45 L 558.5 40.2 L 556.3 32 L 553.7 40.3 L 550.3 44.9 Q 549.5 46 548.35 46 Q 547.2 46 545.7 44.9 L 539.6 40.5 A 12.069 12.069 0 0 1 538.795 39.877 Q 537.57 38.834 537.504 38.04 A 1.082 1.082 0 0 1 537.5 37.95 Q 537.5 36.9 538.1 36.1 L 541.6 31.4 L 548.9 26.1 L 539.8 26.1 L 534.3 24.3 Q 532.771 23.876 532.541 22.441 A 3.411 3.411 0 0 1 532.5 21.9 Q 532.5 21.092 532.823 20.122 A 8.54 8.54 0 0 1 532.9 19.9 L 535.2 12.7 A 8.924 8.924 0 0 1 535.662 11.588 Q 536.267 10.391 537.065 9.995 A 1.856 1.856 0 0 1 537.9 9.8 Q 538.169 9.8 538.528 9.891 A 5.165 5.165 0 0 1 538.9 10 L 544.5 11.8 L 551.9 17.3 L 549 8.5 L 549 2.7 Q 549 0 552.7 0 L 560.3 0 A 7.47 7.47 0 0 1 561.627 0.107 Q 564 0.538 564 2.7 Z M 252 49.5 L 252 53 Q 255 53.3 258 53.3 A 61.5 61.5 0 0 0 274.946 50.858 A 69.768 69.768 0 0 0 276.8 50.3 L 279.2 65 Q 268 68 257 68 A 47.286 47.286 0 0 1 249.738 67.482 Q 246.021 66.903 243.071 65.676 A 18.314 18.314 0 0 1 236.75 61.45 A 20.261 20.261 0 0 1 232.369 54.108 Q 231.259 50.973 230.809 47.116 A 48.436 48.436 0 0 1 230.5 41.5 A 45.737 45.737 0 0 1 231.051 34.148 Q 231.683 30.277 233.04 27.2 A 19.482 19.482 0 0 1 236.75 21.55 Q 241.434 16.641 250.445 15.411 A 48.213 48.213 0 0 1 256.95 15 A 80.503 80.503 0 0 1 263.373 15.237 Q 269.484 15.728 273.272 17.24 A 13.771 13.771 0 0 1 276.2 18.8 A 11.096 11.096 0 0 1 279.915 23.599 Q 280.757 25.572 281.152 28.102 A 31.876 31.876 0 0 1 281.5 33 A 19.044 19.044 0 0 1 280.895 37.96 A 12.454 12.454 0 0 1 275.15 45.65 Q 270.306 48.587 259.38 49.284 A 116.513 116.513 0 0 1 252 49.5 Z M 173 83 L 173 16.5 L 183 16.5 L 186.7 21.5 Q 190.172 16.371 198.313 15.289 A 35.649 35.649 0 0 1 203 15 Q 209.1 15 213.5 17.3 A 16.97 16.97 0 0 1 218.083 20.735 A 15.462 15.462 0 0 1 220.2 23.6 A 31.813 31.813 0 0 1 223.87 33.963 A 43.179 43.179 0 0 1 224.5 41.5 Q 224.5 54.2 219 60.7 A 14.824 14.824 0 0 1 216.05 63.244 A 20.161 20.161 0 0 1 213.1 64.85 A 18.574 18.574 0 0 1 208.421 66.207 A 25.055 25.055 0 0 1 204.5 66.5 L 193 66.5 L 193 81.5 L 173 83 Z M 475.4 83 L 475.4 16.5 L 485.4 16.5 L 489.1 21.5 Q 492.572 16.371 500.713 15.289 A 35.649 35.649 0 0 1 505.4 15 Q 511.5 15 515.9 17.3 A 16.97 16.97 0 0 1 520.483 20.735 A 15.462 15.462 0 0 1 522.6 23.6 A 31.813 31.813 0 0 1 526.27 33.963 A 43.179 43.179 0 0 1 526.9 41.5 Q 526.9 54.2 521.4 60.7 A 14.824 14.824 0 0 1 518.45 63.244 A 20.161 20.161 0 0 1 515.5 64.85 A 18.574 18.574 0 0 1 510.821 66.207 A 25.055 25.055 0 0 1 506.9 66.5 L 495.4 66.5 L 495.4 81.5 L 475.4 83 Z M 326.5 1.5 L 346.5 0 L 346.5 52.2 A 81.788 81.788 0 0 0 348.006 52.469 Q 349.623 52.741 350.749 52.849 A 17.743 17.743 0 0 0 351.4 52.9 L 350.5 67.6 A 173.047 173.047 0 0 1 345.316 67.529 Q 336.803 67.272 333.6 66.1 Q 328.5 64.2 327.3 61.3 Q 326.5 59.5 326.5 57.1 L 326.5 1.5 Z M 357.269 54.108 A 20.261 20.261 0 0 0 361.65 61.45 A 18.314 18.314 0 0 0 367.971 65.676 Q 370.921 66.903 374.638 67.482 A 47.286 47.286 0 0 0 381.9 68 A 48.525 48.525 0 0 0 388.427 67.589 Q 392.19 67.077 395.198 65.928 A 18.62 18.62 0 0 0 402.15 61.45 A 19.482 19.482 0 0 0 405.86 55.801 Q 407.217 52.724 407.849 48.853 A 45.737 45.737 0 0 0 408.4 41.5 A 48.436 48.436 0 0 0 408.092 35.884 Q 407.641 32.027 406.531 28.893 A 20.261 20.261 0 0 0 402.15 21.55 A 18.314 18.314 0 0 0 395.83 17.325 Q 392.879 16.098 389.162 15.518 A 47.286 47.286 0 0 0 381.9 15 A 48.525 48.525 0 0 0 375.373 15.411 Q 371.61 15.923 368.602 17.073 A 18.62 18.62 0 0 0 361.65 21.55 A 19.482 19.482 0 0 0 357.94 27.2 Q 356.583 30.277 355.951 34.148 A 45.737 45.737 0 0 0 355.4 41.5 A 48.436 48.436 0 0 0 355.709 47.116 Q 356.159 50.973 357.269 54.108 Z M 416.269 54.108 A 20.261 20.261 0 0 0 420.65 61.45 A 18.314 18.314 0 0 0 426.971 65.676 Q 429.921 66.903 433.638 67.482 A 47.286 47.286 0 0 0 440.9 68 A 48.525 48.525 0 0 0 447.427 67.589 Q 451.19 67.077 454.198 65.928 A 18.62 18.62 0 0 0 461.15 61.45 A 19.482 19.482 0 0 0 464.86 55.801 Q 466.217 52.724 466.849 48.853 A 45.737 45.737 0 0 0 467.4 41.5 A 48.436 48.436 0 0 0 467.092 35.884 Q 466.641 32.027 465.531 28.893 A 20.261 20.261 0 0 0 461.15 21.55 A 18.314 18.314 0 0 0 454.83 17.325 Q 451.879 16.098 448.162 15.518 A 47.286 47.286 0 0 0 440.9 15 A 48.525 48.525 0 0 0 434.373 15.411 Q 430.61 15.923 427.602 17.073 A 18.62 18.62 0 0 0 420.65 21.55 A 19.482 19.482 0 0 0 416.94 27.2 Q 415.583 30.277 414.951 34.148 A 45.737 45.737 0 0 0 414.4 41.5 A 48.436 48.436 0 0 0 414.709 47.116 Q 415.159 50.973 416.269 54.108 Z M 289 66.5 L 289 16.5 L 299 16.5 L 304.5 22.1 Q 310.4 16.7 319.3 15 L 320.5 33.9 A 16.278 16.278 0 0 0 318.858 34.06 Q 317.027 34.325 314.599 35.002 A 55.319 55.319 0 0 0 314.25 35.1 A 20.361 20.361 0 0 0 312.328 35.747 Q 310.435 36.499 309.41 37.464 A 4.734 4.734 0 0 0 309 37.9 L 309 66.5 L 289 66.5 Z M 376.9 33.8 L 376.9 53.4 L 380 53.4 A 27.628 27.628 0 0 0 381.775 53.347 Q 384.038 53.201 385.25 52.65 A 2.544 2.544 0 0 0 386.59 51.175 Q 386.779 50.685 386.853 50.059 A 7.345 7.345 0 0 0 386.9 49.2 L 386.9 29.6 L 383.8 29.6 A 27.628 27.628 0 0 0 382.025 29.653 Q 379.762 29.8 378.55 30.35 A 2.544 2.544 0 0 0 377.21 31.825 Q 377.021 32.315 376.947 32.942 A 7.345 7.345 0 0 0 376.9 33.8 Z M 435.9 33.8 L 435.9 53.4 L 439 53.4 A 27.628 27.628 0 0 0 440.775 53.347 Q 443.038 53.201 444.25 52.65 A 2.544 2.544 0 0 0 445.59 51.175 Q 445.779 50.685 445.853 50.059 A 7.345 7.345 0 0 0 445.9 49.2 L 445.9 29.6 L 442.8 29.6 A 27.628 27.628 0 0 0 441.025 29.653 Q 438.762 29.8 437.55 30.35 A 2.544 2.544 0 0 0 436.21 31.825 Q 436.021 32.315 435.947 32.942 A 7.345 7.345 0 0 0 435.9 33.8 Z M 495.4 33.3 L 495.4 53.4 L 498.5 53.4 A 27.628 27.628 0 0 0 500.275 53.347 Q 502.538 53.201 503.75 52.65 A 2.544 2.544 0 0 0 505.09 51.175 Q 505.279 50.685 505.353 50.059 A 7.345 7.345 0 0 0 505.4 49.2 L 505.4 29.6 L 502.3 29.6 Q 500.2 29.6 498.921 29.782 A 10.814 10.814 0 0 0 498.8 29.8 Q 497.5 30 496.5 30.85 A 2.999 2.999 0 0 0 495.556 32.352 A 4.463 4.463 0 0 0 495.4 33.3 Z M 193 33.3 L 193 53.4 L 196.1 53.4 A 27.628 27.628 0 0 0 197.875 53.347 Q 200.138 53.201 201.35 52.65 A 2.544 2.544 0 0 0 202.69 51.175 Q 202.879 50.685 202.953 50.059 A 7.345 7.345 0 0 0 203 49.2 L 203 29.6 L 199.9 29.6 Q 197.8 29.6 196.521 29.782 A 10.814 10.814 0 0 0 196.4 29.8 Q 195.1 30 194.1 30.85 A 2.999 2.999 0 0 0 193.156 32.352 A 4.463 4.463 0 0 0 193 33.3 Z M 252 33.8 L 252 37.9 L 256.1 37.9 A 27.628 27.628 0 0 0 257.875 37.847 Q 260.138 37.701 261.35 37.15 A 2.544 2.544 0 0 0 262.69 35.675 Q 262.879 35.185 262.953 34.559 A 7.345 7.345 0 0 0 263 33.7 L 263 29.6 L 258.9 29.6 A 27.628 27.628 0 0 0 257.125 29.653 Q 254.862 29.8 253.65 30.35 A 2.544 2.544 0 0 0 252.31 31.825 Q 252.121 32.315 252.047 32.942 A 7.345 7.345 0 0 0 252 33.8 Z" vector-effect="non-scaling-stroke"/></g></svg>
