<svg width="801.123" height="119.532" viewBox="0 0 801.123 119.532" xmlns="http://www.w3.org/2000/svg"><g id="svgGroup" stroke-linecap="round" fill-rule="evenodd" font-size="9pt" stroke="#000" stroke-width="0.95mm" fill="none" style="stroke:#000;stroke-width:0.95mm;fill:none"><path d="M 169.824 113.184 L 175.195 100.977 A 31.14 31.14 0 0 0 179.425 103.278 A 34.627 34.627 0 0 0 180.078 103.564 A 38.22 38.22 0 0 0 185.571 105.42 Q 188.428 106.152 191.406 106.519 A 48.377 48.377 0 0 0 197.314 106.885 Q 204.039 106.885 208.682 104.938 A 16.922 16.922 0 0 0 212.671 102.612 A 13.712 13.712 0 0 0 217.54 94.718 A 21.613 21.613 0 0 0 218.066 89.795 L 218.066 87.842 A 27.088 27.088 0 0 1 215.298 89.514 A 32.486 32.486 0 0 1 213.794 90.259 A 34.49 34.49 0 0 1 209.72 91.835 A 38.871 38.871 0 0 1 208.716 92.139 A 40.12 40.12 0 0 1 203.842 93.211 A 44.87 44.87 0 0 1 203.003 93.335 Q 200 93.75 196.924 93.75 A 38.677 38.677 0 0 1 190.68 93.268 A 29.71 29.71 0 0 1 185.132 91.821 Q 179.932 89.893 176.343 86.157 A 23.81 23.81 0 0 1 171.907 79.579 A 29.023 29.023 0 0 1 170.85 76.953 A 33.313 33.313 0 0 1 169.323 70.405 A 44.884 44.884 0 0 1 168.945 64.453 L 168.945 36.133 L 183.35 36.133 L 183.35 60.449 Q 183.35 70.898 187.329 75.854 Q 190.889 80.288 198.141 80.755 A 27.384 27.384 0 0 0 199.902 80.811 A 29.365 29.365 0 0 0 205.567 80.288 A 22.697 22.697 0 0 0 210.62 78.687 Q 215.283 76.563 218.066 73.242 L 218.066 36.133 L 232.52 36.133 L 232.52 87.158 A 48.972 48.972 0 0 1 232.071 93.963 Q 231.566 97.556 230.494 100.624 A 29.164 29.164 0 0 1 230.176 101.489 A 26.92 26.92 0 0 1 226.214 108.537 A 24.194 24.194 0 0 1 223.364 111.572 A 27.17 27.17 0 0 1 215.895 116.281 A 33.645 33.645 0 0 1 212.402 117.554 A 44.318 44.318 0 0 1 204.774 119.125 A 59.681 59.681 0 0 1 197.656 119.531 A 67.4 67.4 0 0 1 188.005 118.864 A 56.927 56.927 0 0 1 182.617 117.822 A 62.904 62.904 0 0 1 173.57 114.895 A 54.39 54.39 0 0 1 169.824 113.184 Z M 69.971 93.75 L 69.971 17.432 L 85.449 17.432 L 85.449 37.354 L 132.91 37.354 L 132.91 17.432 L 148.438 17.432 L 148.438 93.75 L 132.91 93.75 L 132.91 50.586 L 85.449 50.586 L 85.449 93.75 L 69.971 93.75 Z M 402.637 70.41 L 348.145 70.41 Q 349.072 72.998 351.147 75.146 A 17.271 17.271 0 0 0 354.13 77.589 A 22.079 22.079 0 0 0 356.348 78.857 Q 359.473 80.42 363.574 81.274 Q 367.676 82.129 372.656 82.129 A 47.481 47.481 0 0 0 382.568 81.079 A 72.917 72.917 0 0 0 391.711 78.518 A 67.437 67.437 0 0 0 391.992 78.418 L 396.875 89.453 A 59.561 59.561 0 0 1 391.138 91.772 A 50.038 50.038 0 0 1 385.083 93.433 A 61.204 61.204 0 0 1 379.454 94.331 A 68.328 68.328 0 0 1 378.491 94.434 A 70.835 70.835 0 0 1 373.136 94.754 A 81.847 81.847 0 0 1 371.24 94.775 A 68.567 68.567 0 0 1 363.196 94.327 Q 358.929 93.822 355.241 92.75 A 40.813 40.813 0 0 1 354.199 92.432 A 42.737 42.737 0 0 1 347.665 89.76 A 32.1 32.1 0 0 1 341.943 86.035 A 26.915 26.915 0 0 1 335.728 78.838 A 25.442 25.442 0 0 1 334.521 76.514 Q 332.031 71.045 332.031 64.746 Q 332.031 58.887 334.424 53.54 A 28.42 28.42 0 0 1 341.309 44.092 A 31.445 31.445 0 0 1 348.351 39.283 A 39.199 39.199 0 0 1 352.319 37.549 A 37.732 37.732 0 0 1 360.629 35.518 A 49.639 49.639 0 0 1 367.139 35.107 A 47.517 47.517 0 0 1 375.445 35.803 A 37.52 37.52 0 0 1 382.007 37.573 A 35.881 35.881 0 0 1 389.158 41.147 A 30.414 30.414 0 0 1 393.237 44.336 A 29.301 29.301 0 0 1 400.317 54.443 A 31.539 31.539 0 0 1 402.783 66.895 A 62.887 62.887 0 0 1 402.777 67.755 A 77.282 77.282 0 0 1 402.759 68.677 A 20.412 20.412 0 0 1 402.716 69.586 A 15.343 15.343 0 0 1 402.637 70.41 Z M 265.283 89.6 L 265.283 117.285 L 250.83 117.285 L 250.83 36.133 L 265.283 36.133 L 265.283 41.553 A 24.59 24.59 0 0 1 267.358 40.271 A 33.433 33.433 0 0 1 269.775 39.062 A 41.534 41.534 0 0 1 273.877 37.469 A 47.566 47.566 0 0 1 275.342 37.012 Q 278.32 36.133 281.494 35.62 A 39.744 39.744 0 0 1 287.842 35.107 A 43.641 43.641 0 0 1 296.118 35.865 A 36.536 36.536 0 0 1 301.294 37.256 Q 307.422 39.404 311.816 43.311 A 27.59 27.59 0 0 1 318.677 52.661 Q 321.143 58.105 321.143 64.697 A 31.603 31.603 0 0 1 320.324 72.018 A 26.511 26.511 0 0 1 318.555 77.124 A 27.955 27.955 0 0 1 311.401 86.597 A 31.284 31.284 0 0 1 303.04 91.714 A 37.096 37.096 0 0 1 300.562 92.651 A 40.646 40.646 0 0 1 290.338 94.659 A 48.107 48.107 0 0 1 286.963 94.775 Q 283.838 94.775 280.786 94.385 Q 277.734 93.994 274.927 93.311 A 44.079 44.079 0 0 1 270.908 92.134 A 38.608 38.608 0 0 1 269.653 91.675 A 33.564 33.564 0 0 1 267.192 90.615 A 25.653 25.653 0 0 1 265.283 89.6 Z M 681.494 89.6 L 681.494 117.285 L 667.041 117.285 L 667.041 36.133 L 681.494 36.133 L 681.494 41.553 A 24.59 24.59 0 0 1 683.569 40.271 A 33.433 33.433 0 0 1 685.986 39.062 A 41.534 41.534 0 0 1 690.088 37.469 A 47.566 47.566 0 0 1 691.553 37.012 Q 694.531 36.133 697.705 35.62 A 39.744 39.744 0 0 1 704.053 35.107 A 43.641 43.641 0 0 1 712.329 35.865 A 36.536 36.536 0 0 1 717.505 37.256 Q 723.633 39.404 728.027 43.311 A 27.59 27.59 0 0 1 734.888 52.661 Q 737.354 58.105 737.354 64.697 A 31.603 31.603 0 0 1 736.535 72.018 A 26.511 26.511 0 0 1 734.766 77.124 A 27.955 27.955 0 0 1 727.612 86.597 A 31.284 31.284 0 0 1 719.251 91.714 A 37.096 37.096 0 0 1 716.772 92.651 A 40.646 40.646 0 0 1 706.549 94.659 A 48.107 48.107 0 0 1 703.174 94.775 Q 700.049 94.775 696.997 94.385 Q 693.945 93.994 691.138 93.311 A 44.079 44.079 0 0 1 687.119 92.134 A 38.608 38.608 0 0 1 685.864 91.675 A 33.564 33.564 0 0 1 683.403 90.615 A 25.653 25.653 0 0 1 681.494 89.6 Z M 15.381 49.121 L 6.396 42.627 L 16.797 28.32 L 0 22.803 L 3.418 12.207 L 20.264 17.725 L 20.166 0 L 31.445 0 L 31.348 17.725 L 48.242 12.256 L 51.709 22.852 L 34.912 28.32 L 45.166 42.627 L 36.182 49.17 L 25.83 34.814 L 15.381 49.121 Z M 764.795 49.121 L 755.811 42.627 L 766.211 28.32 L 749.414 22.803 L 752.832 12.207 L 769.678 17.725 L 769.58 0 L 780.859 0 L 780.762 17.725 L 797.656 12.256 L 801.123 22.852 L 784.326 28.32 L 794.58 42.627 L 785.596 49.17 L 775.244 34.814 L 764.795 49.121 Z M 500.854 53.32 A 27.274 27.274 0 0 0 498.34 64.941 A 27.274 27.274 0 0 0 500.854 76.562 A 28.142 28.142 0 0 0 508.032 86.035 A 31.25 31.25 0 0 0 512.486 89.254 A 37.811 37.811 0 0 0 519.312 92.432 A 39.112 39.112 0 0 0 525.931 94.124 A 49.985 49.985 0 0 0 534.18 94.775 A 51.903 51.903 0 0 0 540.377 94.418 A 40.312 40.312 0 0 0 549.048 92.432 A 40.133 40.133 0 0 0 552.992 90.8 A 32.545 32.545 0 0 0 560.327 86.035 A 28.142 28.142 0 0 0 567.505 76.562 A 27.274 27.274 0 0 0 570.02 64.941 A 27.274 27.274 0 0 0 567.505 53.32 A 28.142 28.142 0 0 0 560.327 43.848 A 31.25 31.25 0 0 0 555.873 40.629 A 37.811 37.811 0 0 0 549.048 37.451 A 39.112 39.112 0 0 0 542.428 35.759 A 49.985 49.985 0 0 0 534.18 35.107 A 51.903 51.903 0 0 0 527.982 35.465 A 40.312 40.312 0 0 0 519.312 37.451 A 40.133 40.133 0 0 0 515.367 39.083 A 32.545 32.545 0 0 0 508.032 43.848 A 28.142 28.142 0 0 0 500.854 53.32 Z M 583.667 53.32 A 27.274 27.274 0 0 0 581.152 64.941 A 27.274 27.274 0 0 0 583.667 76.562 A 28.142 28.142 0 0 0 590.845 86.035 A 31.25 31.25 0 0 0 595.299 89.254 A 37.811 37.811 0 0 0 602.124 92.432 A 39.112 39.112 0 0 0 608.744 94.124 A 49.985 49.985 0 0 0 616.992 94.775 A 51.903 51.903 0 0 0 623.189 94.418 A 40.312 40.312 0 0 0 631.86 92.432 A 40.133 40.133 0 0 0 635.805 90.8 A 32.545 32.545 0 0 0 643.14 86.035 A 28.142 28.142 0 0 0 650.317 76.562 A 27.274 27.274 0 0 0 652.832 64.941 A 27.274 27.274 0 0 0 650.317 53.32 A 28.142 28.142 0 0 0 643.14 43.848 A 31.25 31.25 0 0 0 638.686 40.629 A 37.811 37.811 0 0 0 631.86 37.451 A 39.112 39.112 0 0 0 625.241 35.759 A 49.985 49.985 0 0 0 616.992 35.107 A 51.903 51.903 0 0 0 610.795 35.465 A 40.312 40.312 0 0 0 602.124 37.451 A 40.133 40.133 0 0 0 598.18 39.083 A 32.545 32.545 0 0 0 590.845 43.848 A 28.142 28.142 0 0 0 583.667 53.32 Z M 418.311 93.75 L 418.311 36.133 L 432.764 36.133 L 432.764 44.434 Q 437.549 40.869 442.871 38.281 A 58.685 58.685 0 0 1 450.827 35.086 A 52.068 52.068 0 0 1 453.467 34.326 L 457.715 47.559 A 53.131 53.131 0 0 0 449.929 48.893 A 39.947 39.947 0 0 0 443.042 51.294 A 26.701 26.701 0 0 0 434.33 57.578 A 25.787 25.787 0 0 0 432.764 59.473 L 432.764 93.75 L 418.311 93.75 Z M 468.848 93.75 L 468.848 12.744 L 483.301 12.744 L 483.301 93.75 L 468.848 93.75 Z M 265.283 55.664 L 265.283 75.635 Q 267.48 77.393 269.922 78.613 A 32.489 32.489 0 0 0 274.902 80.615 Q 277.441 81.396 280.029 81.763 A 36.346 36.346 0 0 0 284.446 82.123 A 32.925 32.925 0 0 0 285.059 82.129 A 31.58 31.58 0 0 0 289.626 81.814 A 23.53 23.53 0 0 0 293.921 80.786 A 21.584 21.584 0 0 0 297.701 79.077 A 17.271 17.271 0 0 0 300.464 77.1 A 15.931 15.931 0 0 0 304.541 71.582 A 16.566 16.566 0 0 0 305.95 65.216 A 19.161 19.161 0 0 0 305.957 64.697 Q 305.957 61.23 304.565 58.154 A 15.948 15.948 0 0 0 300.562 52.759 A 18.386 18.386 0 0 0 296.251 49.929 A 22.342 22.342 0 0 0 294.263 49.097 A 22.017 22.017 0 0 0 289.304 47.943 A 28.181 28.181 0 0 0 285.986 47.754 A 31.062 31.062 0 0 0 280.127 48.315 Q 277.197 48.877 274.487 49.902 A 29.41 29.41 0 0 0 269.409 52.393 Q 267.041 53.857 265.283 55.664 Z M 681.494 55.664 L 681.494 75.635 Q 683.691 77.393 686.133 78.613 A 32.489 32.489 0 0 0 691.113 80.615 Q 693.652 81.396 696.24 81.763 A 36.346 36.346 0 0 0 700.657 82.123 A 32.925 32.925 0 0 0 701.27 82.129 A 31.58 31.58 0 0 0 705.837 81.814 A 23.53 23.53 0 0 0 710.132 80.786 A 21.584 21.584 0 0 0 713.912 79.077 A 17.271 17.271 0 0 0 716.675 77.1 A 15.931 15.931 0 0 0 720.752 71.582 A 16.566 16.566 0 0 0 722.161 65.216 A 19.161 19.161 0 0 0 722.168 64.697 Q 722.168 61.23 720.776 58.154 A 15.948 15.948 0 0 0 716.772 52.759 A 18.386 18.386 0 0 0 712.462 49.929 A 22.342 22.342 0 0 0 710.474 49.097 A 22.017 22.017 0 0 0 705.515 47.943 A 28.181 28.181 0 0 0 702.197 47.754 A 31.062 31.062 0 0 0 696.338 48.315 Q 693.408 48.877 690.698 49.902 A 29.41 29.41 0 0 0 685.62 52.393 Q 683.252 53.857 681.494 55.664 Z M 513.525 64.941 A 15.857 15.857 0 0 0 514.917 71.509 Q 516.309 74.609 518.97 76.978 A 18.55 18.55 0 0 0 523.129 79.746 A 23.131 23.131 0 0 0 525.464 80.737 A 22.699 22.699 0 0 0 530.247 81.881 A 30.007 30.007 0 0 0 534.18 82.129 A 29.306 29.306 0 0 0 538.8 81.781 A 22.261 22.261 0 0 0 542.896 80.737 A 21.783 21.783 0 0 0 546.824 78.87 A 17.793 17.793 0 0 0 549.39 76.978 A 16.09 16.09 0 0 0 553.442 71.509 Q 554.834 68.408 554.834 64.941 Q 554.834 61.475 553.442 58.35 A 16.022 16.022 0 0 0 549.39 52.856 A 18.55 18.55 0 0 0 545.231 50.088 A 23.131 23.131 0 0 0 542.896 49.097 A 22.699 22.699 0 0 0 538.113 47.953 A 30.007 30.007 0 0 0 534.18 47.705 A 29.306 29.306 0 0 0 529.559 48.053 A 22.261 22.261 0 0 0 525.464 49.097 A 21.783 21.783 0 0 0 521.535 50.964 A 17.793 17.793 0 0 0 518.97 52.856 Q 516.309 55.225 514.917 58.35 A 16.025 16.025 0 0 0 513.525 64.941 Z M 596.338 64.941 A 15.857 15.857 0 0 0 597.729 71.509 Q 599.121 74.609 601.782 76.978 A 18.55 18.55 0 0 0 605.941 79.746 A 23.131 23.131 0 0 0 608.276 80.737 A 22.699 22.699 0 0 0 613.059 81.881 A 30.007 30.007 0 0 0 616.992 82.129 A 29.306 29.306 0 0 0 621.613 81.781 A 22.261 22.261 0 0 0 625.708 80.737 A 21.783 21.783 0 0 0 629.637 78.87 A 17.793 17.793 0 0 0 632.202 76.978 A 16.09 16.09 0 0 0 636.255 71.509 Q 637.646 68.408 637.646 64.941 Q 637.646 61.475 636.255 58.35 A 16.022 16.022 0 0 0 632.202 52.856 A 18.55 18.55 0 0 0 628.043 50.088 A 23.131 23.131 0 0 0 625.708 49.097 A 22.699 22.699 0 0 0 620.925 47.953 A 30.007 30.007 0 0 0 616.992 47.705 A 29.306 29.306 0 0 0 612.372 48.053 A 22.261 22.261 0 0 0 608.276 49.097 A 21.783 21.783 0 0 0 604.347 50.964 A 17.793 17.793 0 0 0 601.782 52.856 Q 599.121 55.225 597.729 58.35 A 16.025 16.025 0 0 0 596.338 64.941 Z M 348.145 59.131 L 387.451 59.131 Q 386.67 56.738 385.034 54.663 A 15.547 15.547 0 0 0 381.844 51.645 A 18.149 18.149 0 0 0 380.957 51.05 A 19.205 19.205 0 0 0 377.6 49.385 A 24.106 24.106 0 0 0 375.293 48.633 A 24.769 24.769 0 0 0 371.017 47.878 A 30.92 30.92 0 0 0 368.213 47.754 A 31.426 31.426 0 0 0 363.946 48.031 A 24.689 24.689 0 0 0 360.742 48.682 A 25.399 25.399 0 0 0 357.305 49.886 A 19.993 19.993 0 0 0 354.834 51.172 Q 352.295 52.734 350.61 54.785 A 14.504 14.504 0 0 0 348.722 57.718 A 12.814 12.814 0 0 0 348.145 59.131 Z" vector-effect="non-scaling-stroke"/></g></svg>