<svg width="395.5" height="100.001" viewBox="0 0 395.5 100.001" xmlns="http://www.w3.org/2000/svg"><g id="svgGroup" stroke-linecap="round" fill-rule="evenodd" font-size="9pt" stroke="#000000" stroke-width="0.95mm" fill="none" style="stroke:#000000;stroke-width:0.95mm;fill:none"><path d="M 236.7 57.1 L 247.4 7 L 262.2 5 L 250.7 59 Q 250.3 60.5 250.3 62.2 Q 250.3 63.36 250.62 64.133 A 2.476 2.476 0 0 0 251.25 65.05 A 2.759 2.759 0 0 0 252.116 65.56 Q 252.919 65.866 254.128 65.897 A 10.79 10.79 0 0 0 254.4 65.9 A 6.923 6.923 0 0 0 258.199 64.742 A 10.064 10.064 0 0 0 259.8 63.45 A 13.046 13.046 0 0 0 262.014 60.531 A 27.212 27.212 0 0 1 262 59.6 Q 262 53.477 264.27 46.139 A 67.864 67.864 0 0 1 264.8 44.5 Q 267.6 36.2 273.8 30.15 Q 280 24.1 289.4 24.1 Q 300.946 24.1 302.077 37.119 A 34.488 34.488 0 0 1 302.2 40.1 L 302.2 40.2 Q 302.49 40.297 303.246 40.3 A 12.398 12.398 0 0 0 303.3 40.3 A 15.135 15.135 0 0 0 306.146 40.011 Q 308.347 39.589 310.9 38.55 A 38.889 38.889 0 0 0 311.416 38.338 A 35.707 35.707 0 0 1 317.7 30.15 Q 323.9 24.1 333.3 24.1 Q 344.846 24.1 345.977 37.119 A 34.488 34.488 0 0 1 346.1 40.1 L 346.1 40.2 Q 346.39 40.297 347.146 40.3 A 12.398 12.398 0 0 0 347.2 40.3 A 15.135 15.135 0 0 0 350.046 40.011 Q 352.247 39.589 354.8 38.55 A 38.889 38.889 0 0 0 355.172 38.398 L 358.8 21.3 L 373.2 21.3 L 371.6 28.8 Q 376.6 24.5 383.3 24.5 A 13.669 13.669 0 0 1 387.287 25.053 A 10.592 10.592 0 0 1 392.2 28.2 Q 395.295 31.67 395.487 39.272 A 40.576 40.576 0 0 1 395.5 40.3 A 57.506 57.506 0 0 1 393.479 55.244 A 64.04 64.04 0 0 1 393.2 56.25 Q 390.9 64.3 385.4 69.95 A 18.384 18.384 0 0 1 374.412 75.367 A 25.597 25.597 0 0 1 370.9 75.6 Q 367.463 75.6 365.266 74.561 A 6.357 6.357 0 0 1 362.4 72 L 357.2 96.4 L 342.1 100 L 354.195 43.002 A 38.171 38.171 0 0 1 347.833 44.919 A 43.914 43.914 0 0 1 345.8 45.3 A 52.831 52.831 0 0 1 344.439 53.576 A 39.511 39.511 0 0 1 341.7 61.2 A 31.452 31.452 0 0 1 338.189 66.894 A 24.062 24.062 0 0 1 333.2 71.7 Q 328 75.4 321.9 75.4 Q 315.866 75.4 311.893 72.873 A 13.461 13.461 0 0 1 310.2 71.6 A 11.664 11.664 0 0 1 306.942 66.606 Q 306.266 64.68 306.029 62.306 A 27.212 27.212 0 0 1 305.9 59.6 Q 305.9 53.477 308.17 46.139 A 67.864 67.864 0 0 1 308.7 44.5 A 35.707 35.707 0 0 1 309.06 43.47 A 38.171 38.171 0 0 1 303.933 44.919 A 43.914 43.914 0 0 1 301.9 45.3 A 52.831 52.831 0 0 1 300.539 53.576 A 39.511 39.511 0 0 1 297.8 61.2 A 31.452 31.452 0 0 1 294.289 66.894 A 24.062 24.062 0 0 1 289.3 71.7 Q 284.1 75.4 278 75.4 Q 271.966 75.4 267.993 72.873 A 13.461 13.461 0 0 1 266.3 71.6 A 11.664 11.664 0 0 1 263.053 66.64 A 30.531 30.531 0 0 1 262.502 67.426 Q 260.478 70.172 258.1 71.75 A 25.497 25.497 0 0 1 253.314 74.278 A 18.299 18.299 0 0 1 246.6 75.6 A 12.469 12.469 0 0 1 243.069 75.124 A 9.634 9.634 0 0 1 238.85 72.6 A 9.385 9.385 0 0 1 236.684 68.99 Q 236.182 67.519 236.001 65.721 A 21.244 21.244 0 0 1 235.9 63.6 Q 235.9 61.214 236.629 57.462 A 66.029 66.029 0 0 1 236.7 57.1 Z M 86 75.4 L 87.2 70 A 21.909 21.909 0 0 1 85.011 72.119 Q 83.749 73.171 82.468 73.855 A 11.749 11.749 0 0 1 81.3 74.4 Q 78.3 75.6 75.2 75.6 A 12.469 12.469 0 0 1 71.669 75.124 A 9.634 9.634 0 0 1 67.45 72.6 A 9.385 9.385 0 0 1 65.284 68.99 Q 64.782 67.519 64.601 65.721 A 21.244 21.244 0 0 1 64.5 63.6 Q 64.5 61.214 65.229 57.462 A 66.029 66.029 0 0 1 65.3 57.1 L 72.1 25 L 86.5 25 L 79.3 59 Q 79 60.2 79 61.5 A 9.551 9.551 0 0 0 79.115 63.051 Q 79.569 65.795 81.824 65.896 A 3.914 3.914 0 0 0 82 65.9 Q 84.6 65.9 86.6 63.65 A 13.585 13.585 0 0 0 88.375 61.084 Q 89.038 59.861 89.564 58.391 A 24.024 24.024 0 0 0 89.8 57.7 L 96.8 25 L 111.2 25 L 101.3 71.4 A 20.444 20.444 0 0 0 105.383 69.548 A 15.893 15.893 0 0 0 109 66.6 A 17.118 17.118 0 0 0 111.049 63.764 Q 112.65 61.038 113.9 57.1 L 113.903 57.1 L 121.5 21.3 L 135.9 21.3 L 134.3 28.8 Q 139.3 24.5 146 24.5 A 13.669 13.669 0 0 1 149.987 25.053 A 10.592 10.592 0 0 1 154.9 28.2 Q 157.995 31.67 158.187 39.272 A 40.576 40.576 0 0 1 158.2 40.3 A 57.506 57.506 0 0 1 156.179 55.244 A 64.04 64.04 0 0 1 155.9 56.25 Q 153.6 64.3 148.1 69.95 A 18.384 18.384 0 0 1 137.112 75.367 A 25.597 25.597 0 0 1 133.6 75.6 Q 130.163 75.6 127.966 74.561 A 6.357 6.357 0 0 1 125.1 72 L 119.9 96.4 L 104.8 100 L 111.218 69.756 A 18.967 18.967 0 0 1 110.8 70.15 Q 106.2 74.3 100.4 75.8 L 98.9 83 A 38.332 38.332 0 0 1 97.546 87.978 Q 95.522 93.727 92 96.35 Q 87.1 100 80.9 100 A 15.192 15.192 0 0 1 77.167 99.563 A 11.373 11.373 0 0 1 72.9 97.5 A 8.113 8.113 0 0 1 69.832 92.119 A 12.035 12.035 0 0 1 69.7 90.3 A 11.353 11.353 0 0 1 70.745 85.378 Q 71.821 83.107 74.004 81.378 A 14.219 14.219 0 0 1 74.3 81.15 Q 78.442 78.044 84.61 75.87 A 57.374 57.374 0 0 1 86 75.4 Z M 8.8 75 L 23.3 7 A 23.751 23.751 0 0 0 16.728 11.036 A 21.127 21.127 0 0 0 12.95 15.4 Q 9.3 21 9.3 28.9 Q 9.3 32.6 10 34.05 A 50.196 50.196 0 0 1 10.164 34.393 Q 10.593 35.299 10.679 35.592 A 0.434 0.434 0 0 1 10.7 35.7 A 20.861 20.861 0 0 1 7.88 35.522 Q 6.425 35.323 5.242 34.902 A 8.223 8.223 0 0 1 2.65 33.45 A 6.745 6.745 0 0 1 0.726 30.635 Q 0.296 29.501 0.121 28.083 A 17.01 17.01 0 0 1 0 26 A 16.53 16.53 0 0 1 1.95 18.33 Q 3.199 15.913 5.25 13.55 Q 10.5 7.5 18.7 3.75 A 41.466 41.466 0 0 1 28.95 0.527 A 36.323 36.323 0 0 1 35.1 0 Q 36.5 0 39.1 0.2 L 32.7 30 L 47.4 30 L 53.8 0.2 L 68.2 0.2 L 52.3 75 L 37.9 75 L 45.9 37.4 L 31.2 37.4 L 23.2 75 L 8.8 75 Z M 170.401 75.166 A 22.853 22.853 0 0 0 175 75.6 A 26.345 26.345 0 0 0 185.613 73.429 Q 191.1 71.045 195.837 66.043 A 51.435 51.435 0 0 0 197.63 64.009 L 195.3 75 L 209.7 75 L 217.7 37 Q 219.317 35.523 220.514 34.665 A 12.277 12.277 0 0 1 221.45 34.05 A 5.358 5.358 0 0 1 221.614 33.958 Q 223.017 33.2 225 33.2 A 1.71 1.71 0 0 1 225.36 33.235 A 1.026 1.026 0 0 1 226.1 33.8 A 3.716 3.716 0 0 1 226.214 34.054 Q 226.457 34.648 226.7 35.7 A 12.76 12.76 0 0 0 226.992 36.884 Q 227.156 37.427 227.356 37.873 A 5.094 5.094 0 0 0 227.85 38.75 A 1.882 1.882 0 0 0 228.065 39.001 Q 228.881 39.8 230.8 39.8 A 9.059 9.059 0 0 0 232.311 39.679 A 6.203 6.203 0 0 0 236.1 37.6 Q 238 35.4 238 32.5 A 10.041 10.041 0 0 0 237.988 32.009 A 7.857 7.857 0 0 0 236.15 27.2 A 5.901 5.901 0 0 0 233.352 25.322 A 7.49 7.49 0 0 0 231.1 25 Q 227.9 25 225.15 26.6 A 26.329 26.329 0 0 0 223.818 27.432 Q 221.599 28.907 219 31.2 L 220.3 25 L 205.9 25 L 199.093 57.108 A 68.658 68.658 0 0 1 196.641 59.695 Q 193.447 62.884 190.65 64.7 A 14.942 14.942 0 0 1 185.976 66.687 A 19.48 19.48 0 0 1 181.4 67.2 Q 179.248 67.2 177.769 66.639 A 5.066 5.066 0 0 1 175.9 65.45 A 4.153 4.153 0 0 1 175.242 64.542 Q 174.528 63.235 174.303 61.021 A 22.107 22.107 0 0 1 174.2 58.8 A 14.663 14.663 0 0 1 174.204 58.488 Q 174.228 57.388 174.4 54.8 Q 180.4 54.4 185.7 51.55 A 27.397 27.397 0 0 0 186.029 51.37 A 23.524 23.524 0 0 0 194.2 44 Q 197.4 39.3 197.4 33.7 Q 197.4 26.125 190.551 24.527 A 18.339 18.339 0 0 0 186.4 24.1 A 27.62 27.62 0 0 0 184.383 24.172 A 20.641 20.641 0 0 0 170.9 30.15 Q 164.8 36.2 162.1 44.5 A 69.739 69.739 0 0 0 161.773 45.532 Q 159.4 53.231 159.4 59.7 A 28.096 28.096 0 0 0 159.555 62.723 Q 159.811 65.086 160.49 67 A 11.796 11.796 0 0 0 163.5 71.75 Q 166.223 74.307 170.401 75.166 Z M 285.668 64.794 A 12.04 12.04 0 0 0 286.8 63.65 A 18.443 18.443 0 0 0 288.718 60.974 Q 289.552 59.578 290.296 57.88 A 37.013 37.013 0 0 0 291 56.15 Q 292.8 51.4 293.6 45.6 A 3.084 3.084 0 0 1 291.249 43.6 Q 290.9 42.694 290.9 41.4 Q 290.9 37.3 294 36 Q 293.8 32.7 293 31.45 A 2.544 2.544 0 0 0 291.556 30.383 Q 290.966 30.2 290.2 30.2 A 5.11 5.11 0 0 0 287.451 31.054 Q 285.785 32.104 284.173 34.441 A 22.136 22.136 0 0 0 283.8 35 A 36.934 36.934 0 0 0 280.845 40.636 A 49.916 49.916 0 0 0 278.8 46.5 A 58.874 58.874 0 0 0 277.642 51.3 Q 277.155 53.802 276.988 56.035 A 30.311 30.311 0 0 0 276.9 58.3 A 32.944 32.944 0 0 0 276.961 60.377 Q 277.155 63.442 277.976 64.714 A 3.005 3.005 0 0 0 278 64.75 Q 278.907 66.11 281.036 66.349 A 8.651 8.651 0 0 0 282 66.4 Q 283.834 66.4 285.668 64.794 Z M 329.568 64.794 A 12.04 12.04 0 0 0 330.7 63.65 A 18.443 18.443 0 0 0 332.618 60.974 Q 333.452 59.578 334.196 57.88 A 37.013 37.013 0 0 0 334.9 56.15 Q 336.7 51.4 337.5 45.6 A 3.084 3.084 0 0 1 335.149 43.6 Q 334.8 42.694 334.8 41.4 Q 334.8 37.3 337.9 36 Q 337.7 32.7 336.9 31.45 A 2.544 2.544 0 0 0 335.456 30.383 Q 334.866 30.2 334.1 30.2 A 5.11 5.11 0 0 0 331.351 31.054 Q 329.685 32.104 328.073 34.441 A 22.136 22.136 0 0 0 327.7 35 A 36.934 36.934 0 0 0 324.745 40.636 A 49.916 49.916 0 0 0 322.7 46.5 A 58.874 58.874 0 0 0 321.542 51.3 Q 321.055 53.802 320.888 56.035 A 30.311 30.311 0 0 0 320.8 58.3 A 32.944 32.944 0 0 0 320.861 60.377 Q 321.055 63.442 321.876 64.714 A 3.005 3.005 0 0 0 321.9 64.75 Q 322.807 66.11 324.936 66.349 A 8.651 8.651 0 0 0 325.9 66.4 Q 327.734 66.4 329.568 64.794 Z M 132.6 36.6 L 126.7 64.6 Q 127.5 66.9 130.5 66.9 A 8.952 8.952 0 0 0 137.319 63.814 A 13.549 13.549 0 0 0 138.45 62.4 A 28.031 28.031 0 0 0 141.724 56.091 A 35.896 35.896 0 0 0 143.05 51.65 A 58.493 58.493 0 0 0 144.182 45.249 A 45.108 45.108 0 0 0 144.5 40 A 20.603 20.603 0 0 0 144.324 37.179 Q 143.888 34.044 142.372 32.702 A 4.175 4.175 0 0 0 139.5 31.7 A 5.487 5.487 0 0 0 137.402 32.134 Q 136.631 32.452 135.85 33 A 10.624 10.624 0 0 0 133.812 34.896 A 14.007 14.007 0 0 0 132.6 36.6 Z M 369.9 36.6 L 364 64.6 Q 364.8 66.9 367.8 66.9 A 8.952 8.952 0 0 0 374.619 63.814 A 13.549 13.549 0 0 0 375.75 62.4 A 28.031 28.031 0 0 0 379.024 56.091 A 35.896 35.896 0 0 0 380.35 51.65 A 58.493 58.493 0 0 0 381.482 45.249 A 45.108 45.108 0 0 0 381.8 40 A 20.603 20.603 0 0 0 381.624 37.179 Q 381.188 34.044 379.672 32.702 A 4.175 4.175 0 0 0 376.8 31.7 A 5.487 5.487 0 0 0 374.702 32.134 Q 373.931 32.452 373.15 33 A 10.624 10.624 0 0 0 371.112 34.896 A 14.007 14.007 0 0 0 369.9 36.6 Z M 175.2 50 Q 178.9 49.8 182.25 47.4 Q 185.6 45 187.65 41.3 Q 189.7 37.6 189.7 33.5 Q 189.7 29.4 187.2 29.4 A 4.792 4.792 0 0 0 184.521 30.286 Q 182.306 31.763 180.15 35.7 A 45.223 45.223 0 0 0 176.328 45.166 A 55.223 55.223 0 0 0 175.2 50 Z M 84.4 83.3 L 85 80.4 A 36.376 36.376 0 0 0 81.423 81.916 Q 75.2 84.995 75.2 88.9 Q 75.2 90.2 76.1 91.2 A 2.948 2.948 0 0 0 77.8 92.129 A 4.335 4.335 0 0 0 78.6 92.2 Q 80.255 92.2 81.816 90.02 A 10.961 10.961 0 0 0 81.9 89.9 Q 83.5 87.6 84.4 83.3 Z" vector-effect="non-scaling-stroke"/></g></svg>