<svg width="485.352" height="101.465" viewBox="0 0 485.352 101.465" xmlns="http://www.w3.org/2000/svg"><g id="svgGroup" stroke-linecap="round" fill-rule="evenodd" font-size="9pt" stroke="#000" stroke-width="0.95mm" fill="none" style="stroke:#000;stroke-width:0.95mm;fill:none"><path d="M 280.811 58.545 L 291.504 8.447 L 306.299 6.445 L 294.824 60.449 A 7.717 7.717 0 0 0 294.586 61.498 Q 294.5 62.034 294.463 62.655 A 16.874 16.874 0 0 0 294.434 63.672 A 6.944 6.944 0 0 0 294.501 64.675 Q 294.678 65.884 295.322 66.494 A 2.073 2.073 0 0 0 295.386 66.553 Q 296.338 67.383 298.486 67.383 A 6.604 6.604 0 0 0 301.343 66.724 Q 302.734 66.065 303.906 64.893 A 13.271 13.271 0 0 0 306.116 61.917 A 26.949 26.949 0 0 1 306.104 61.084 A 34.988 34.988 0 0 1 306.262 57.843 Q 306.421 56.14 306.738 54.273 A 46.944 46.944 0 0 1 308.509 47.264 A 51.83 51.83 0 0 1 308.691 46.729 A 42.59 42.59 0 0 1 311.836 39.483 A 30.795 30.795 0 0 1 317.334 32.227 Q 324.121 25.586 333.496 25.586 A 14.597 14.597 0 0 1 339.114 26.584 Q 345.45 29.21 346.229 38.744 A 34.537 34.537 0 0 1 346.338 41.553 L 346.338 41.65 Q 346.529 41.714 346.678 41.736 A 1.013 1.013 0 0 0 346.826 41.748 L 347.412 41.748 A 14.871 14.871 0 0 0 350.192 41.465 Q 352.506 41.023 355.274 39.893 A 39.785 39.785 0 0 0 355.579 39.765 A 42.59 42.59 0 0 1 355.732 39.483 A 30.795 30.795 0 0 1 361.231 32.227 Q 368.018 25.586 377.393 25.586 A 14.597 14.597 0 0 1 383.011 26.584 Q 389.347 29.21 390.125 38.744 A 34.537 34.537 0 0 1 390.234 41.553 L 390.234 41.65 Q 390.425 41.714 390.574 41.736 A 1.013 1.013 0 0 0 390.723 41.748 L 391.309 41.748 A 14.871 14.871 0 0 0 394.089 41.465 Q 396.403 41.023 399.17 39.893 A 39.785 39.785 0 0 0 399.306 39.836 L 402.93 22.754 L 417.334 22.754 L 415.723 30.274 Q 420.801 25.977 427.393 25.977 A 14.79 14.79 0 0 1 430.953 26.381 A 9.937 9.937 0 0 1 436.084 29.395 A 12.323 12.323 0 0 1 438.393 33.455 Q 439.6 36.856 439.6 41.748 Q 439.6 49.805 437.549 56.885 Q 435.466 64.154 431.866 68.798 A 23.04 23.04 0 0 1 430.029 70.899 A 20.195 20.195 0 0 1 415.34 77.049 A 25.994 25.994 0 0 1 414.99 77.051 A 18.413 18.413 0 0 1 412.609 76.906 Q 410.699 76.656 409.277 75.977 Q 407.568 75.195 406.494 73.486 L 401.318 97.852 L 386.231 101.465 L 398.326 44.455 A 37.791 37.791 0 0 1 392.637 46.232 A 44.605 44.605 0 0 1 389.893 46.777 A 51.952 51.952 0 0 1 388.68 54.415 A 42.507 42.507 0 0 1 387.256 59.155 Q 385.205 64.746 381.983 68.75 A 23.789 23.789 0 0 1 377.417 73.099 A 21.112 21.112 0 0 1 374.707 74.756 Q 370.606 76.856 366.016 76.856 A 24.463 24.463 0 0 1 361.508 76.467 Q 358.988 75.994 357.004 74.946 A 12.359 12.359 0 0 1 354.541 73.242 Q 350.497 69.676 350.054 62.818 A 26.949 26.949 0 0 1 350 61.084 A 34.988 34.988 0 0 1 350.159 57.843 Q 350.317 56.14 350.635 54.273 A 46.944 46.944 0 0 1 352.406 47.264 A 51.83 51.83 0 0 1 352.588 46.729 A 42.59 42.59 0 0 1 353.228 44.913 A 37.791 37.791 0 0 1 348.741 46.232 A 44.605 44.605 0 0 1 345.996 46.777 A 51.952 51.952 0 0 1 344.784 54.415 A 42.507 42.507 0 0 1 343.359 59.155 Q 341.309 64.746 338.086 68.75 A 23.789 23.789 0 0 1 333.521 73.099 A 21.112 21.112 0 0 1 330.811 74.756 Q 326.709 76.856 322.119 76.856 A 24.463 24.463 0 0 1 317.611 76.467 Q 315.092 75.994 313.108 74.946 A 12.359 12.359 0 0 1 310.645 73.242 A 12.583 12.583 0 0 1 307.117 67.882 A 31.995 31.995 0 0 1 306.241 69.091 A 25.183 25.183 0 0 1 304.981 70.606 A 21.274 21.274 0 0 1 300.241 74.456 A 18.921 18.921 0 0 1 297.266 75.879 A 18.481 18.481 0 0 1 290.723 77.051 A 13.08 13.08 0 0 1 287.542 76.685 A 9.122 9.122 0 0 1 283.154 74.219 Q 280.412 71.476 280.076 66.515 A 21.146 21.146 0 0 1 280.029 65.088 A 25.108 25.108 0 0 1 280.179 62.445 Q 280.323 61.087 280.606 59.572 A 46.556 46.556 0 0 1 280.811 58.545 Z M 130.176 76.856 L 131.397 71.484 A 19.59 19.59 0 0 1 128.543 74.087 A 14.931 14.931 0 0 1 125.049 76.025 A 15.324 15.324 0 0 1 119.949 77.042 A 17.561 17.561 0 0 1 119.385 77.051 A 13.08 13.08 0 0 1 116.204 76.685 A 9.122 9.122 0 0 1 111.816 74.219 Q 109.074 71.476 108.738 66.515 A 21.146 21.146 0 0 1 108.691 65.088 A 25.108 25.108 0 0 1 108.841 62.445 Q 108.985 61.087 109.268 59.572 A 46.556 46.556 0 0 1 109.473 58.545 L 116.26 26.465 L 130.664 26.465 L 123.486 60.449 Q 123.193 61.67 123.193 62.988 Q 123.193 64.293 123.491 65.231 A 4.133 4.133 0 0 0 123.828 66.016 A 2.648 2.648 0 0 0 124.535 66.875 Q 125.057 67.28 125.787 67.362 A 3.443 3.443 0 0 0 126.172 67.383 A 5.756 5.756 0 0 0 129.737 66.132 A 8.504 8.504 0 0 0 130.908 65.039 A 11.071 11.071 0 0 0 132.188 63.277 Q 133.191 61.591 133.984 59.18 L 140.967 26.465 L 155.371 26.465 L 145.459 72.852 A 20.111 20.111 0 0 0 149.473 71.048 A 15.404 15.404 0 0 0 153.027 68.164 A 18.334 18.334 0 0 0 155.341 64.951 Q 156.313 63.267 157.131 61.187 A 39.218 39.218 0 0 0 158.057 58.545 L 158.081 58.545 L 165.674 22.754 L 180.078 22.754 L 178.467 30.274 Q 183.545 25.977 190.137 25.977 A 14.79 14.79 0 0 1 193.697 26.381 A 9.937 9.937 0 0 1 198.828 29.395 A 12.323 12.323 0 0 1 201.137 33.455 Q 202.344 36.856 202.344 41.748 Q 202.344 49.805 200.293 56.885 Q 198.211 64.154 194.611 68.798 A 23.04 23.04 0 0 1 192.774 70.899 A 20.195 20.195 0 0 1 178.084 77.049 A 25.994 25.994 0 0 1 177.734 77.051 A 18.413 18.413 0 0 1 175.353 76.906 Q 173.443 76.656 172.022 75.977 Q 170.313 75.195 169.238 73.486 L 164.063 97.852 L 148.975 101.465 L 155.411 71.128 A 22.205 22.205 0 0 1 154.248 72.266 A 21.309 21.309 0 0 1 147.51 76.323 A 26.623 26.623 0 0 1 144.58 77.246 L 143.066 84.473 Q 141.162 94.043 135.449 98.34 A 15.224 15.224 0 0 1 129.098 101.096 A 21.211 21.211 0 0 1 125.049 101.465 A 15.881 15.881 0 0 1 122.043 101.189 A 13.713 13.713 0 0 1 120.679 100.855 A 10.429 10.429 0 0 1 118.378 99.861 A 8.989 8.989 0 0 1 117.188 99.024 Q 115.625 97.803 114.746 95.972 A 8.797 8.797 0 0 1 113.991 93.464 A 11.481 11.481 0 0 1 113.867 91.748 A 11.101 11.101 0 0 1 116.987 84.02 A 16.847 16.847 0 0 1 119.19 82.031 A 26.052 26.052 0 0 1 122.772 79.824 Q 124.642 78.856 126.901 77.991 A 57.159 57.159 0 0 1 130.176 76.856 Z M 52.979 76.465 L 67.481 8.447 Q 60.742 11.279 57.105 16.846 A 21.913 21.913 0 0 0 53.937 24.96 A 29.861 29.861 0 0 0 53.467 30.371 A 22.893 22.893 0 0 0 53.535 32.199 Q 53.69 34.129 54.199 35.352 A 5.628 5.628 0 0 0 54.45 36.019 A 4.466 4.466 0 0 0 54.688 36.475 A 1.546 1.546 0 0 1 54.834 36.816 A 1.239 1.239 0 0 1 54.883 37.158 Q 49.512 37.158 46.924 35.01 A 6.907 6.907 0 0 1 44.917 32.088 Q 44.19 30.161 44.19 27.441 A 15.791 15.791 0 0 1 45.178 22.01 A 18.61 18.61 0 0 1 45.581 20.996 A 22.76 22.76 0 0 1 48.164 16.537 A 27.471 27.471 0 0 1 49.561 14.795 A 33.291 33.291 0 0 1 53.988 10.562 A 38.355 38.355 0 0 1 55.42 9.473 A 42.618 42.618 0 0 1 62.744 5.225 A 44.001 44.001 0 0 1 72.084 2.188 A 36.42 36.42 0 0 1 79.248 1.465 Q 81.345 1.465 83.016 1.635 A 25.889 25.889 0 0 1 83.252 1.66 L 76.856 31.445 L 91.553 31.445 L 97.949 1.66 L 112.354 1.66 L 96.484 76.465 L 82.08 76.465 L 90.088 38.867 L 75.391 38.867 L 67.383 76.465 L 52.979 76.465 Z M 214.665 76.651 A 23.491 23.491 0 0 0 219.141 77.051 A 26.49 26.49 0 0 0 225.842 76.207 A 27.862 27.862 0 0 0 235.742 71.289 A 38.744 38.744 0 0 0 241.626 65.635 A 51.14 51.14 0 0 0 241.724 65.518 L 239.404 76.465 L 253.809 76.465 L 261.816 38.477 A 51.14 51.14 0 0 1 262.244 38.091 Q 264.204 36.341 265.527 35.547 A 5.977 5.977 0 0 1 267.433 34.824 A 8.356 8.356 0 0 1 269.092 34.668 A 1.769 1.769 0 0 1 269.473 34.707 A 1.102 1.102 0 0 1 270.166 35.156 A 1.946 1.946 0 0 1 270.215 35.237 Q 270.527 35.778 270.839 37.033 A 25.022 25.022 0 0 1 271.045 37.94 A 5.94 5.94 0 0 0 271.22 38.632 A 7.367 7.367 0 0 0 271.582 39.551 A 3.063 3.063 0 0 0 272.803 40.82 A 2.867 2.867 0 0 0 273.322 41.045 Q 273.664 41.157 274.077 41.21 A 6.428 6.428 0 0 0 274.902 41.26 Q 276.611 41.26 278.003 40.625 A 8.068 8.068 0 0 0 278.014 40.62 A 7.187 7.187 0 0 0 280.371 38.916 Q 281.25 37.891 281.69 36.621 A 8.004 8.004 0 0 0 282.129 33.984 Q 282.129 32.471 281.69 31.128 A 6.889 6.889 0 0 0 280.371 28.76 Q 278.418 26.465 275.195 26.465 A 11.527 11.527 0 0 0 271.578 27.067 A 15.585 15.585 0 0 0 268.701 28.369 A 17.593 17.593 0 0 0 267.907 28.87 Q 266.545 29.776 264.764 31.262 A 73.48 73.48 0 0 0 263.135 32.666 L 264.404 26.465 L 250 26.465 L 243.198 58.561 A 122.347 122.347 0 0 1 241.805 60.074 Q 241.13 60.795 240.512 61.427 A 60.585 60.585 0 0 1 239.111 62.817 A 26.679 26.679 0 0 1 238.614 63.282 A 23.711 23.711 0 0 1 235.449 65.723 Q 230.957 68.652 225.537 68.652 A 16.497 16.497 0 0 1 225.261 68.65 Q 223.213 68.616 221.83 68.067 A 4.689 4.689 0 0 1 220.166 66.992 A 4.437 4.437 0 0 1 219.558 66.225 Q 218.691 64.857 218.427 62.506 A 20.238 20.238 0 0 1 218.311 60.254 A 19.511 19.511 0 0 1 218.313 59.961 Q 218.327 59.034 218.426 57.732 A 75.313 75.313 0 0 1 218.555 56.25 A 27.523 27.523 0 0 0 227.149 54.273 Q 231.299 52.588 234.57 49.756 A 21.527 21.527 0 0 0 239.697 43.14 A 17.704 17.704 0 0 0 241.553 35.156 Q 241.553 33.034 241.041 31.401 A 7.383 7.383 0 0 0 239.404 28.516 A 8.158 8.158 0 0 0 236.703 26.665 Q 235.372 26.086 233.688 25.818 A 20.192 20.192 0 0 0 230.518 25.586 A 27.332 27.332 0 0 0 230.145 25.589 A 21.683 21.683 0 0 0 214.404 32.227 Q 211.572 35.108 209.448 38.867 A 43.537 43.537 0 0 0 205.957 46.826 A 50.57 50.57 0 0 0 204.126 54.346 A 58.915 58.915 0 0 0 204.117 54.404 Q 203.818 56.252 203.668 57.935 A 36.58 36.58 0 0 0 203.516 61.182 A 27.816 27.816 0 0 0 203.635 63.816 Q 204.229 70.049 207.764 73.34 A 12.15 12.15 0 0 0 210.097 75.032 Q 212.099 76.153 214.665 76.651 Z M 12.012 38.867 L 14.502 24.365 A 39.74 39.74 0 0 1 12.787 26.365 Q 11.051 28.248 9.556 29.266 A 10.96 10.96 0 0 1 9.399 29.37 Q 7.129 30.859 4.981 30.859 A 5.141 5.141 0 0 1 3.245 30.578 A 4.398 4.398 0 0 1 1.367 29.273 A 5.539 5.539 0 0 1 0.124 26.612 A 7.766 7.766 0 0 1 0 25.195 L 0 24.512 Q 0 24.279 0.089 23.912 A 5.32 5.32 0 0 1 0.098 23.877 L 12.793 19.775 A 54.026 54.026 0 0 1 9.399 19.098 Q 6.211 18.345 4.243 17.36 A 10.129 10.129 0 0 1 3.027 16.65 Q 1.981 15.966 1.432 15.149 A 3.784 3.784 0 0 1 1.221 14.795 A 4.742 4.742 0 0 1 0.7 12.929 A 5.722 5.722 0 0 1 0.684 12.5 A 6.378 6.378 0 0 1 0.904 10.795 A 5.405 5.405 0 0 1 1.465 9.473 Q 2.344 8.106 4.395 6.397 L 14.502 15.283 Q 12.917 10.122 12.802 6.807 A 14.637 14.637 0 0 1 12.793 6.299 A 10.865 10.865 0 0 1 13.025 3.941 Q 13.768 0.617 16.879 0.097 A 7.499 7.499 0 0 1 18.115 0 A 10.444 10.444 0 0 1 19.631 0.119 Q 20.895 0.305 22.412 0.781 L 19.922 15.283 Q 21.777 12.981 23.443 11.506 A 15.602 15.602 0 0 1 25.147 10.181 A 11.368 11.368 0 0 1 26.835 9.245 Q 27.827 8.808 28.774 8.664 A 6.09 6.09 0 0 1 29.688 8.594 A 5.44 5.44 0 0 1 31.369 8.842 A 4.384 4.384 0 0 1 33.35 10.156 A 5.38 5.38 0 0 1 34.552 12.61 A 7.794 7.794 0 0 1 34.717 14.258 A 5.194 5.194 0 0 1 34.687 14.831 Q 34.641 15.249 34.522 15.576 L 21.582 19.775 Q 27.007 20.8 29.868 22.148 A 10.615 10.615 0 0 1 31.299 22.949 Q 32.32 23.657 32.852 24.459 A 3.756 3.756 0 0 1 33.081 24.854 A 4.836 4.836 0 0 1 33.544 26.402 A 6.139 6.139 0 0 1 33.594 27.197 A 7.467 7.467 0 0 1 33.49 28.481 Q 33.362 29.209 33.08 29.804 A 4.27 4.27 0 0 1 32.91 30.127 Q 32.129 31.445 29.981 33.301 L 19.922 24.365 A 151.902 151.902 0 0 1 20.311 25.884 Q 20.856 28.058 21.167 29.614 Q 21.579 31.673 21.582 33.371 A 14.184 14.184 0 0 1 21.582 33.399 A 10.754 10.754 0 0 1 21.345 35.766 Q 20.595 39.075 17.47 39.599 A 7.623 7.623 0 0 1 16.211 39.697 A 8.045 8.045 0 0 1 15.13 39.616 Q 14.008 39.463 12.512 39.02 A 30.443 30.443 0 0 1 12.012 38.867 Z M 462.647 38.867 L 465.137 24.365 A 39.74 39.74 0 0 1 463.422 26.365 Q 461.686 28.248 460.19 29.266 A 10.96 10.96 0 0 1 460.034 29.37 Q 457.764 30.859 455.615 30.859 A 5.141 5.141 0 0 1 453.88 30.578 A 4.398 4.398 0 0 1 452.002 29.273 A 5.539 5.539 0 0 1 450.759 26.612 A 7.766 7.766 0 0 1 450.635 25.195 L 450.635 24.512 Q 450.635 24.279 450.724 23.912 A 5.32 5.32 0 0 1 450.733 23.877 L 463.428 19.775 A 54.026 54.026 0 0 1 460.034 19.098 Q 456.845 18.345 454.878 17.36 A 10.129 10.129 0 0 1 453.662 16.65 Q 452.616 15.966 452.067 15.149 A 3.784 3.784 0 0 1 451.856 14.795 A 4.742 4.742 0 0 1 451.334 12.929 A 5.722 5.722 0 0 1 451.318 12.5 A 6.378 6.378 0 0 1 451.539 10.795 A 5.405 5.405 0 0 1 452.1 9.473 Q 452.979 8.106 455.029 6.397 L 465.137 15.283 Q 463.552 10.122 463.437 6.807 A 14.637 14.637 0 0 1 463.428 6.299 A 10.865 10.865 0 0 1 463.66 3.941 Q 464.402 0.617 467.514 0.097 A 7.499 7.499 0 0 1 468.75 0 A 10.444 10.444 0 0 1 470.266 0.119 Q 471.529 0.305 473.047 0.781 L 470.557 15.283 Q 472.411 12.981 474.078 11.506 A 15.602 15.602 0 0 1 475.781 10.181 A 11.368 11.368 0 0 1 477.469 9.245 Q 478.462 8.808 479.408 8.664 A 6.09 6.09 0 0 1 480.322 8.594 A 5.44 5.44 0 0 1 482.004 8.842 A 4.384 4.384 0 0 1 483.984 10.156 A 5.38 5.38 0 0 1 485.186 12.61 A 7.794 7.794 0 0 1 485.352 14.258 A 5.194 5.194 0 0 1 485.322 14.831 Q 485.275 15.249 485.156 15.576 L 472.217 19.775 Q 477.642 20.8 480.503 22.148 A 10.615 10.615 0 0 1 481.934 22.949 Q 482.955 23.657 483.487 24.459 A 3.756 3.756 0 0 1 483.716 24.854 A 4.836 4.836 0 0 1 484.179 26.402 A 6.139 6.139 0 0 1 484.229 27.197 A 7.467 7.467 0 0 1 484.124 28.481 Q 483.997 29.209 483.715 29.804 A 4.27 4.27 0 0 1 483.545 30.127 Q 482.764 31.445 480.615 33.301 L 470.557 24.365 A 151.902 151.902 0 0 1 470.946 25.884 Q 471.491 28.058 471.802 29.614 Q 472.214 31.673 472.217 33.371 A 14.184 14.184 0 0 1 472.217 33.399 A 10.754 10.754 0 0 1 471.98 35.766 Q 471.23 39.075 468.105 39.599 A 7.623 7.623 0 0 1 466.846 39.697 A 8.045 8.045 0 0 1 465.764 39.616 Q 464.643 39.463 463.146 39.02 A 30.443 30.443 0 0 1 462.647 38.867 Z M 326.123 67.871 Q 327.881 67.871 329.712 66.284 A 13.018 13.018 0 0 0 331.272 64.657 Q 332.248 63.458 333.154 61.865 A 28.473 28.473 0 0 0 334.656 58.789 Q 335.352 57.129 335.938 55.225 A 48.975 48.975 0 0 0 337.366 49.21 A 56.716 56.716 0 0 0 337.695 47.07 Q 336.231 46.68 335.62 45.606 A 4.34 4.34 0 0 1 335.182 44.47 Q 335.056 43.943 335.022 43.328 A 8.382 8.382 0 0 1 335.01 42.871 A 8.378 8.378 0 0 1 335.137 41.373 Q 335.296 40.499 335.654 39.788 A 4.903 4.903 0 0 1 335.84 39.453 A 4.906 4.906 0 0 1 338.135 37.451 A 21.599 21.599 0 0 0 337.986 35.893 Q 337.783 34.384 337.38 33.442 A 4.227 4.227 0 0 0 337.109 32.91 A 2.811 2.811 0 0 0 336.615 32.324 A 2.329 2.329 0 0 0 336.011 31.934 Q 335.352 31.641 334.326 31.641 A 5.097 5.097 0 0 0 331.587 32.495 Q 329.902 33.556 328.255 35.933 A 23.35 23.35 0 0 0 327.734 36.719 A 34.261 34.261 0 0 0 325.101 41.669 Q 324.012 44.164 323.133 47.081 A 58.956 58.956 0 0 0 322.852 48.047 A 56.808 56.808 0 0 0 321.65 53.161 Q 320.996 56.722 320.996 59.766 A 38.564 38.564 0 0 0 321.022 61.232 Q 321.08 62.744 321.265 63.818 A 8.621 8.621 0 0 0 321.493 64.812 Q 321.638 65.302 321.834 65.699 A 3.898 3.898 0 0 0 322.168 66.26 A 3.33 3.33 0 0 0 323.059 67.176 A 3.144 3.144 0 0 0 323.682 67.505 A 4.539 4.539 0 0 0 324.46 67.728 Q 324.863 67.809 325.339 67.844 A 10.645 10.645 0 0 0 326.123 67.871 Z M 370.02 67.871 Q 371.777 67.871 373.608 66.284 A 13.018 13.018 0 0 0 375.169 64.657 Q 376.144 63.458 377.051 61.865 A 28.473 28.473 0 0 0 378.552 58.789 Q 379.248 57.129 379.834 55.225 A 48.975 48.975 0 0 0 381.262 49.21 A 56.716 56.716 0 0 0 381.592 47.07 Q 380.127 46.68 379.517 45.606 A 4.34 4.34 0 0 1 379.079 44.47 Q 378.952 43.943 378.918 43.328 A 8.382 8.382 0 0 1 378.906 42.871 A 8.378 8.378 0 0 1 379.033 41.373 Q 379.192 40.499 379.551 39.788 A 4.903 4.903 0 0 1 379.736 39.453 A 4.906 4.906 0 0 1 382.031 37.451 A 21.599 21.599 0 0 0 381.883 35.893 Q 381.679 34.384 381.276 33.442 A 4.227 4.227 0 0 0 381.006 32.91 A 2.811 2.811 0 0 0 380.512 32.324 A 2.329 2.329 0 0 0 379.907 31.934 Q 379.248 31.641 378.223 31.641 A 5.097 5.097 0 0 0 375.484 32.495 Q 373.799 33.556 372.152 35.933 A 23.35 23.35 0 0 0 371.631 36.719 A 34.261 34.261 0 0 0 368.998 41.669 Q 367.908 44.164 367.03 47.081 A 58.956 58.956 0 0 0 366.748 48.047 A 56.808 56.808 0 0 0 365.547 53.161 Q 364.893 56.722 364.893 59.766 A 38.564 38.564 0 0 0 364.919 61.232 Q 364.977 62.744 365.161 63.818 A 8.621 8.621 0 0 0 365.389 64.812 Q 365.535 65.302 365.73 65.699 A 3.898 3.898 0 0 0 366.065 66.26 A 3.33 3.33 0 0 0 366.956 67.176 A 3.144 3.144 0 0 0 367.578 67.505 A 4.539 4.539 0 0 0 368.356 67.728 Q 368.76 67.809 369.236 67.844 A 10.645 10.645 0 0 0 370.02 67.871 Z M 176.758 38.086 L 170.85 66.065 Q 171.191 67.041 172.144 67.7 A 3.456 3.456 0 0 0 173.229 68.189 Q 173.865 68.359 174.658 68.359 A 8.934 8.934 0 0 0 180.75 65.948 A 14.538 14.538 0 0 0 182.959 63.428 A 21.099 21.099 0 0 0 184.859 60.095 Q 186.316 56.952 187.354 52.588 Q 188.672 46.973 188.672 41.455 A 21.294 21.294 0 0 0 188.544 39.035 Q 188.257 36.535 187.324 35.049 A 5.172 5.172 0 0 0 186.865 34.424 A 3.855 3.855 0 0 0 184.67 33.244 A 5.629 5.629 0 0 0 183.643 33.154 Q 181.836 33.154 179.981 34.424 A 9.492 9.492 0 0 0 178.048 36.207 A 13.08 13.08 0 0 0 176.758 38.086 Z M 414.014 38.086 L 408.106 66.065 Q 408.447 67.041 409.399 67.7 A 3.456 3.456 0 0 0 410.485 68.189 Q 411.121 68.359 411.914 68.359 A 8.934 8.934 0 0 0 418.006 65.948 A 14.538 14.538 0 0 0 420.215 63.428 A 21.099 21.099 0 0 0 422.115 60.095 Q 423.572 56.952 424.609 52.588 Q 425.928 46.973 425.928 41.455 A 21.294 21.294 0 0 0 425.8 39.035 Q 425.513 36.535 424.58 35.049 A 5.172 5.172 0 0 0 424.121 34.424 A 3.855 3.855 0 0 0 421.926 33.244 A 5.629 5.629 0 0 0 420.899 33.154 Q 419.092 33.154 417.236 34.424 A 9.492 9.492 0 0 0 415.304 36.207 A 13.08 13.08 0 0 0 414.014 38.086 Z M 219.336 51.465 A 13.186 13.186 0 0 0 224.26 50.108 A 15.331 15.331 0 0 0 224.756 49.854 Q 227.393 48.438 229.443 46.143 Q 231.494 43.799 232.666 40.894 Q 233.838 37.988 233.838 34.961 A 11.485 11.485 0 0 0 233.788 33.856 Q 233.681 32.743 233.337 32.029 A 3.127 3.127 0 0 0 233.276 31.909 A 1.878 1.878 0 0 0 231.926 30.913 A 2.937 2.937 0 0 0 231.348 30.859 A 4.137 4.137 0 0 0 229.535 31.299 Q 228.924 31.594 228.31 32.088 A 9.139 9.139 0 0 0 227.71 32.617 A 15.213 15.213 0 0 0 226.242 34.263 Q 225.185 35.625 224.17 37.451 A 39.287 39.287 0 0 0 222.505 40.939 A 50.559 50.559 0 0 0 221.338 43.994 A 53.794 53.794 0 0 0 219.336 51.465 Z M 128.565 84.766 L 129.15 81.885 Q 124.94 83.47 122.702 85.096 A 11.982 11.982 0 0 0 122.363 85.352 A 9.844 9.844 0 0 0 120.857 86.733 Q 120.052 87.658 119.687 88.662 A 4.996 4.996 0 0 0 119.385 90.381 A 3.448 3.448 0 0 0 119.555 91.485 A 2.94 2.94 0 0 0 120.215 92.578 A 3.044 3.044 0 0 0 122.219 93.621 A 4.349 4.349 0 0 0 122.754 93.652 Q 124.101 93.652 125.603 91.911 A 11.606 11.606 0 0 0 125.977 91.455 A 9.527 9.527 0 0 0 127.009 89.742 Q 127.871 87.944 128.46 85.259 A 34.517 34.517 0 0 0 128.565 84.766 Z" vector-effect="non-scaling-stroke"/></g></svg>