<svg width="650.098" height="103.029" viewBox="0 0 650.098 103.029" xmlns="http://www.w3.org/2000/svg"><g id="svgGroup" stroke-linecap="round" fill-rule="evenodd" font-size="9pt" stroke="#000" stroke-width="0.95mm" fill="none" style="stroke:#000;stroke-width:0.95mm;fill:none"><path d="M 57.275 69.972 L 57.275 46.095 Q 57.275 42.286 53.467 40.333 L 51.318 39.21 A 22.06 22.06 0 0 0 53.29 38.188 Q 55.945 36.622 56.787 34.864 A 5.084 5.084 0 0 0 57.138 33.75 Q 57.241 33.231 57.267 32.634 A 9.397 9.397 0 0 0 57.275 32.227 L 57.275 11.622 Q 55.881 8.464 52.593 7.959 A 8.704 8.704 0 0 0 51.27 7.862 A 5.46 5.46 0 0 0 50.062 7.989 A 3.853 3.853 0 0 0 48.535 8.692 Q 47.998 7.96 47.998 7.008 A 3.119 3.119 0 0 1 48.551 5.238 A 3.734 3.734 0 0 1 48.56 5.225 A 4.246 4.246 0 0 1 49.443 4.283 A 5.551 5.551 0 0 1 50.146 3.809 A 9.095 9.095 0 0 1 54.238 2.483 A 11.274 11.274 0 0 1 55.2 2.442 A 9.881 9.881 0 0 1 60.547 4.005 A 8.383 8.383 0 0 1 64.261 2.553 A 11.022 11.022 0 0 1 65.845 2.442 A 10.458 10.458 0 0 1 69.193 2.964 A 9.347 9.347 0 0 1 71.338 4.005 Q 73.633 2.442 76.465 2.442 Q 79.565 2.442 81.33 3.995 A 5.632 5.632 0 0 1 82.373 5.225 A 3.499 3.499 0 0 1 82.855 6.274 A 3.144 3.144 0 0 1 82.959 7.081 A 2.671 2.671 0 0 1 82.855 7.844 A 2.127 2.127 0 0 1 82.373 8.692 Q 81.299 7.862 79.688 7.862 A 5.853 5.853 0 0 0 77.592 8.215 Q 75.533 8.999 74.658 11.524 L 74.658 37.306 L 97.754 37.306 L 97.754 11.524 Q 96.604 8.208 93.412 7.895 A 7.045 7.045 0 0 0 92.725 7.862 A 5.162 5.162 0 0 0 91.482 8.005 A 3.838 3.838 0 0 0 90.039 8.692 A 2.188 2.188 0 0 1 89.474 7.439 A 2.959 2.959 0 0 1 89.453 7.081 A 3.363 3.363 0 0 1 89.947 5.336 A 4.059 4.059 0 0 1 90.015 5.225 A 5.531 5.531 0 0 1 91.455 3.712 A 7.18 7.18 0 0 1 94.376 2.566 A 9.601 9.601 0 0 1 95.947 2.442 A 8.905 8.905 0 0 1 101.074 4.005 Q 103.564 2.442 106.616 2.442 A 9.968 9.968 0 0 1 109.351 2.803 A 8.147 8.147 0 0 1 111.865 4.005 Q 114.258 2.442 116.406 2.442 A 20.785 20.785 0 0 1 117.791 2.486 Q 119.025 2.568 119.922 2.808 Q 121.289 3.175 122.314 3.809 A 5.773 5.773 0 0 1 123.329 4.574 Q 123.923 5.143 124.191 5.81 A 3.11 3.11 0 0 1 124.414 6.983 A 2.994 2.994 0 0 1 124.244 8.005 A 2.71 2.71 0 0 1 123.877 8.692 A 3.875 3.875 0 0 0 122.283 7.974 A 5.52 5.52 0 0 0 121.143 7.862 A 7.718 7.718 0 0 0 118.716 8.22 Q 116.475 8.96 115.324 11.227 A 8.12 8.12 0 0 0 115.137 11.622 L 115.137 32.227 A 6.138 6.138 0 0 0 117.431 37.135 A 9.324 9.324 0 0 0 118.896 38.136 A 27.409 27.409 0 0 0 121.094 39.21 A 48.529 48.529 0 0 0 119.748 39.884 Q 117.948 40.824 117.173 41.475 A 4.532 4.532 0 0 0 117.139 41.505 A 5.985 5.985 0 0 0 115.141 45.84 A 7.306 7.306 0 0 0 115.137 46.095 L 115.137 69.972 A 6.433 6.433 0 0 0 116.718 72.196 Q 117.948 73.288 119.758 73.578 A 8.756 8.756 0 0 0 121.143 73.682 A 5.46 5.46 0 0 0 122.35 73.556 A 3.853 3.853 0 0 0 123.877 72.852 Q 124.414 73.585 124.414 74.537 A 3.119 3.119 0 0 1 123.861 76.306 A 3.734 3.734 0 0 1 123.853 76.319 A 4.53 4.53 0 0 1 122.844 77.376 A 5.641 5.641 0 0 1 122.314 77.735 A 9.404 9.404 0 0 1 118.229 79.054 A 11.616 11.616 0 0 1 117.163 79.102 Q 114.258 79.102 111.865 77.54 A 8.415 8.415 0 0 1 107.955 79.022 A 10.889 10.889 0 0 1 106.616 79.102 Q 103.564 79.102 101.074 77.54 Q 98.779 79.102 95.947 79.102 Q 91.797 79.102 89.99 76.319 Q 89.453 75.44 89.453 74.464 A 2.671 2.671 0 0 1 89.557 73.701 A 2.127 2.127 0 0 1 90.039 72.852 Q 91.113 73.682 92.725 73.682 A 5.853 5.853 0 0 0 94.82 73.329 Q 96.879 72.545 97.754 70.02 L 97.754 44.288 L 74.658 44.288 L 74.658 70.02 Q 75.808 73.337 79 73.65 A 7.045 7.045 0 0 0 79.688 73.682 A 5.162 5.162 0 0 0 80.93 73.54 A 3.838 3.838 0 0 0 82.373 72.852 A 2.188 2.188 0 0 1 82.938 74.106 A 2.959 2.959 0 0 1 82.959 74.464 A 3.363 3.363 0 0 1 82.465 76.209 A 4.059 4.059 0 0 1 82.397 76.319 A 5.185 5.185 0 0 1 81.134 77.67 A 6.027 6.027 0 0 1 80.908 77.833 A 6.501 6.501 0 0 1 78.458 78.901 Q 77.538 79.102 76.473 79.102 A 10.91 10.91 0 0 1 76.465 79.102 A 9.262 9.262 0 0 1 71.338 77.589 A 10.148 10.148 0 0 1 66.297 79.093 A 12.211 12.211 0 0 1 65.82 79.102 A 10.118 10.118 0 0 1 63.13 78.759 A 8.144 8.144 0 0 1 60.547 77.54 A 12.64 12.64 0 0 1 58.881 78.43 Q 57.963 78.829 57.104 78.991 A 6.17 6.17 0 0 1 55.957 79.102 A 19.844 19.844 0 0 1 54.543 79.055 Q 53.881 79.008 53.314 78.913 A 8.832 8.832 0 0 1 52.49 78.736 A 9.514 9.514 0 0 1 51.257 78.318 A 7.07 7.07 0 0 1 50.146 77.735 A 5.897 5.897 0 0 1 49.108 76.971 Q 48.523 76.422 48.246 75.782 A 3.043 3.043 0 0 1 47.998 74.561 A 2.994 2.994 0 0 1 48.168 73.54 A 2.71 2.71 0 0 1 48.535 72.852 A 3.875 3.875 0 0 0 50.129 73.571 A 5.52 5.52 0 0 0 51.27 73.682 A 7.835 7.835 0 0 0 53.668 73.338 Q 56.121 72.552 57.275 69.972 Z M 179.395 33.448 L 177.881 37.696 A 69.753 69.753 0 0 0 177.233 39.585 Q 176.351 42.292 176.219 43.656 A 4.755 4.755 0 0 0 176.196 44.044 Q 176.178 45.332 176.52 46.245 A 3.66 3.66 0 0 0 176.782 46.803 A 3.18 3.18 0 0 0 177.297 47.449 Q 177.878 48.026 178.905 48.625 A 15.803 15.803 0 0 0 179.541 48.975 Q 175.884 49.991 173.848 51.97 A 8.188 8.188 0 0 0 172.363 53.907 A 17.558 17.558 0 0 0 171.338 56.153 L 163.232 78.175 Q 158.496 91.798 154.443 96.632 A 12.691 12.691 0 0 1 150.77 99.708 A 11.548 11.548 0 0 1 145.166 101.075 A 13.076 13.076 0 0 1 138.166 99.019 A 16.453 16.453 0 0 1 137.158 98.341 A 13.013 13.013 0 0 1 134.939 96.366 Q 132.861 94 132.861 91.114 Q 132.861 89.277 133.55 88.067 A 4.021 4.021 0 0 1 134.229 87.183 Q 135.596 85.841 136.743 85.841 Q 137.687 85.841 138.152 85.857 A 9.042 9.042 0 0 1 138.33 85.865 Q 138.77 85.89 139.209 86.036 A 2.48 2.48 0 0 1 139.854 86.466 Q 140.364 86.925 140.839 87.741 A 8.579 8.579 0 0 1 140.869 87.794 A 2.632 2.632 0 0 0 140.562 88.857 Q 140.469 90.315 142.069 91.97 A 10.114 10.114 0 0 0 142.187 92.091 A 11.457 11.457 0 0 0 143.336 93.148 Q 144.773 94.287 146.088 94.378 A 3.288 3.288 0 0 0 146.313 94.386 A 8.408 8.408 0 0 0 147.723 94.274 Q 148.516 94.139 149.167 93.841 A 4.795 4.795 0 0 0 149.536 93.653 Q 150.83 92.921 151.855 91.407 Q 154.102 88.087 154.102 81.886 A 14.793 14.793 0 0 0 153.705 78.577 Q 153.367 77.107 152.743 75.528 A 27.006 27.006 0 0 0 152.295 74.464 A 35.632 35.632 0 0 0 151.608 72.698 A 43.563 43.563 0 0 0 151.123 71.583 L 144.189 55.958 Q 143.066 53.468 140.796 51.539 A 11.752 11.752 0 0 0 135.693 48.975 Q 137.703 47.956 138.514 46.554 A 4.063 4.063 0 0 0 139.063 44.483 Q 139.063 42.875 138.022 40.037 A 39.439 39.439 0 0 0 137.451 38.575 L 134.57 31.641 Q 133.42 29.075 132.63 28.233 A 2.365 2.365 0 0 0 132.471 28.077 Q 131.006 26.905 129.077 26.905 A 7.217 7.217 0 0 0 127.907 26.994 Q 126.797 27.177 126.074 27.735 A 1.93 1.93 0 0 1 125.61 26.961 Q 125.511 26.661 125.479 26.298 A 4.037 4.037 0 0 1 125.464 26.026 A 7.851 7.851 0 0 1 125.462 25.856 Q 125.462 24.845 125.732 24.146 A 3.245 3.245 0 0 1 126.447 23.049 A 3.976 3.976 0 0 1 126.709 22.804 A 4.729 4.729 0 0 1 128.464 21.825 Q 129.532 21.485 130.933 21.485 A 8.564 8.564 0 0 1 135.518 22.831 A 10.72 10.72 0 0 1 136.133 23.243 A 7.035 7.035 0 0 1 140.527 21.498 A 9.087 9.087 0 0 1 141.016 21.485 A 8.708 8.708 0 0 1 144.311 22.099 A 8.213 8.213 0 0 1 146.094 23.097 A 8.136 8.136 0 0 1 151.025 21.485 A 9.348 9.348 0 0 1 152.77 21.638 Q 153.777 21.83 154.572 22.261 A 4.987 4.987 0 0 1 155.347 22.779 A 6.933 6.933 0 0 1 156.081 23.465 Q 156.922 24.384 156.98 25.291 A 2.106 2.106 0 0 1 156.982 25.343 A 9.737 9.737 0 0 1 156.986 25.576 Q 156.988 26.982 156.557 27.666 A 1.513 1.513 0 0 1 156.348 27.931 A 4.679 4.679 0 0 0 155.285 27.322 A 3.672 3.672 0 0 0 153.906 27.052 A 3.595 3.595 0 0 0 152.96 27.17 A 2.71 2.71 0 0 0 151.831 27.784 A 2.013 2.013 0 0 0 151.287 28.638 Q 151.07 29.268 151.123 30.177 L 162.402 60.645 L 173.096 29.347 Q 172.559 26.856 169.531 26.856 Q 167.627 26.856 165.918 27.784 A 3.717 3.717 0 0 1 165.592 26.883 Q 165.44 26.224 165.454 25.391 A 3.278 3.278 0 0 1 166.068 23.554 A 4.976 4.976 0 0 1 166.821 22.706 Q 168.096 21.547 170.25 21.488 A 8.536 8.536 0 0 1 170.483 21.485 Q 172.803 21.485 174.463 23.048 Q 176.221 21.485 178.418 21.485 A 6.48 6.48 0 0 1 182.422 22.852 A 6.009 6.009 0 0 1 184.347 21.766 A 5.538 5.538 0 0 1 186.108 21.485 Q 188.135 21.485 189.331 22.657 A 4.766 4.766 0 0 1 189.956 23.397 Q 190.48 24.177 190.48 24.999 A 2.587 2.587 0 0 1 190.479 25.099 Q 190.404 26.594 190.1 27.374 A 2.14 2.14 0 0 1 189.893 27.784 Q 188.934 27.174 186.963 27.108 A 14.714 14.714 0 0 0 186.475 27.1 A 6.162 6.162 0 0 0 181.614 29.458 Q 180.771 30.449 180.078 31.858 A 18.001 18.001 0 0 0 179.395 33.448 Z M 197.51 94.337 L 197.51 55.86 A 8.702 8.702 0 0 0 197.436 54.69 Q 197.354 54.087 197.181 53.6 A 3.3 3.3 0 0 0 196.582 52.54 A 8.652 8.652 0 0 0 195.361 51.332 Q 194.039 50.241 191.939 49.169 A 31.245 31.245 0 0 0 191.553 48.975 Q 197.51 46.241 197.51 40.528 L 197.51 35.401 A 9.145 9.145 0 0 0 197.393 33.872 Q 196.935 31.181 194.678 30.909 A 12.24 12.24 0 0 0 194.024 30.851 Q 193.708 30.831 193.346 30.821 A 27.801 27.801 0 0 0 192.578 30.811 A 3.716 3.716 0 0 0 190.369 31.541 A 4.636 4.636 0 0 0 190.234 31.641 Q 189.551 30.714 189.551 29.713 Q 189.551 28.857 189.925 27.823 A 8.887 8.887 0 0 1 190.063 27.467 A 7.652 7.652 0 0 1 191.038 25.776 A 9.336 9.336 0 0 1 191.602 25.099 A 9.211 9.211 0 0 1 194.02 23.296 A 7.8 7.8 0 0 1 197.583 22.462 A 17.725 17.725 0 0 1 199.967 22.613 Q 201.182 22.778 202.205 23.124 A 9.168 9.168 0 0 1 203.223 23.536 Q 205.908 20.509 208.984 20.509 A 6.887 6.887 0 0 1 211.005 20.779 Q 214.014 21.703 214.014 25.782 L 214.014 26.124 A 18.484 18.484 0 0 1 220.425 21.997 A 24.296 24.296 0 0 1 224.072 20.899 Q 225.977 20.509 228.979 20.509 A 22.92 22.92 0 0 1 232.857 20.852 A 28.194 28.194 0 0 1 235.303 21.388 Q 238.623 22.266 241.064 24.513 A 14.239 14.239 0 0 1 244.088 28.649 Q 246.084 32.616 246.879 38.827 A 56.766 56.766 0 0 1 247.07 40.528 A 10.664 10.664 0 0 0 248.137 44.508 Q 249.379 46.964 252.007 48.456 A 12.86 12.86 0 0 0 253.027 48.975 A 36.716 36.716 0 0 0 251.542 49.747 Q 249.343 50.959 248.633 51.856 Q 247.412 53.516 247.07 55.86 A 57.337 57.337 0 0 1 245.946 62.305 Q 244.32 69.116 241.182 73.039 A 16.736 16.736 0 0 1 241.016 73.243 A 16.438 16.438 0 0 1 231.372 78.863 A 25.051 25.051 0 0 1 226.318 79.347 Q 218.896 79.347 214.014 75.44 L 214.014 94.239 A 7.358 7.358 0 0 0 214.725 95.713 Q 215.276 96.572 216.014 97.041 A 3.739 3.739 0 0 0 218.066 97.608 A 5.46 5.46 0 0 0 219.274 97.482 A 3.853 3.853 0 0 0 220.801 96.778 Q 221.484 97.706 221.484 99.098 A 2.955 2.955 0 0 1 221.056 100.604 Q 220.801 101.041 220.394 101.466 A 6.333 6.333 0 0 1 220.093 101.759 Q 218.701 103.028 215.869 103.028 A 8.716 8.716 0 0 1 210.742 101.417 A 6.984 6.984 0 0 1 207.204 102.938 A 9.38 9.38 0 0 1 205.884 103.028 A 8.846 8.846 0 0 1 202.722 102.475 A 8.165 8.165 0 0 1 200.781 101.417 A 8.333 8.333 0 0 1 195.838 103.027 A 10.216 10.216 0 0 1 195.703 103.028 A 10.383 10.383 0 0 1 194.133 102.918 Q 192.412 102.654 191.431 101.759 Q 190.077 100.524 190.04 99.381 A 1.981 1.981 0 0 1 190.039 99.317 A 6.142 6.142 0 0 1 190.116 98.312 Q 190.269 97.394 190.723 96.778 A 3.875 3.875 0 0 0 192.317 97.496 A 5.52 5.52 0 0 0 193.457 97.608 A 3.765 3.765 0 0 0 196.64 95.995 Q 197.083 95.397 197.417 94.576 A 8.83 8.83 0 0 0 197.51 94.337 Z M 548.535 94.337 L 548.535 55.86 A 8.702 8.702 0 0 0 548.462 54.69 Q 548.38 54.087 548.206 53.6 A 3.3 3.3 0 0 0 547.607 52.54 A 8.652 8.652 0 0 0 546.386 51.332 Q 545.065 50.241 542.965 49.169 A 31.245 31.245 0 0 0 542.578 48.975 Q 548.535 46.241 548.535 40.528 L 548.535 35.401 A 9.145 9.145 0 0 0 548.418 33.872 Q 547.96 31.181 545.703 30.909 A 12.24 12.24 0 0 0 545.05 30.851 Q 544.733 30.831 544.372 30.821 A 27.801 27.801 0 0 0 543.604 30.811 A 3.716 3.716 0 0 0 541.395 31.541 A 4.636 4.636 0 0 0 541.26 31.641 Q 540.576 30.714 540.576 29.713 Q 540.576 28.857 540.951 27.823 A 8.887 8.887 0 0 1 541.089 27.467 A 7.652 7.652 0 0 1 542.063 25.776 A 9.336 9.336 0 0 1 542.627 25.099 A 9.211 9.211 0 0 1 545.046 23.296 A 7.8 7.8 0 0 1 548.608 22.462 A 17.725 17.725 0 0 1 550.992 22.613 Q 552.208 22.778 553.23 23.124 A 9.168 9.168 0 0 1 554.248 23.536 Q 556.934 20.509 560.01 20.509 A 6.887 6.887 0 0 1 562.031 20.779 Q 565.039 21.703 565.039 25.782 L 565.039 26.124 A 18.484 18.484 0 0 1 571.451 21.997 A 24.296 24.296 0 0 1 575.098 20.899 Q 577.002 20.509 580.005 20.509 A 22.92 22.92 0 0 1 583.883 20.852 A 28.194 28.194 0 0 1 586.328 21.388 Q 589.648 22.266 592.09 24.513 A 14.239 14.239 0 0 1 595.114 28.649 Q 597.109 32.616 597.905 38.827 A 56.766 56.766 0 0 1 598.096 40.528 A 10.664 10.664 0 0 0 599.162 44.508 Q 600.405 46.964 603.032 48.456 A 12.86 12.86 0 0 0 604.053 48.975 A 36.716 36.716 0 0 0 602.567 49.747 Q 600.368 50.959 599.658 51.856 Q 598.438 53.516 598.096 55.86 A 57.337 57.337 0 0 1 596.971 62.305 Q 595.345 69.116 592.207 73.039 A 16.736 16.736 0 0 1 592.041 73.243 A 16.438 16.438 0 0 1 582.397 78.863 A 25.051 25.051 0 0 1 577.344 79.347 Q 569.922 79.347 565.039 75.44 L 565.039 94.239 A 7.358 7.358 0 0 0 565.75 95.713 Q 566.302 96.572 567.04 97.041 A 3.739 3.739 0 0 0 569.092 97.608 A 5.46 5.46 0 0 0 570.299 97.482 A 3.853 3.853 0 0 0 571.826 96.778 Q 572.51 97.706 572.51 99.098 A 2.955 2.955 0 0 1 572.082 100.604 Q 571.826 101.041 571.419 101.466 A 6.333 6.333 0 0 1 571.118 101.759 Q 569.727 103.028 566.895 103.028 A 8.716 8.716 0 0 1 561.768 101.417 A 6.984 6.984 0 0 1 558.229 102.938 A 9.38 9.38 0 0 1 556.909 103.028 A 8.846 8.846 0 0 1 553.748 102.475 A 8.165 8.165 0 0 1 551.807 101.417 A 8.333 8.333 0 0 1 546.863 103.027 A 10.216 10.216 0 0 1 546.729 103.028 A 10.383 10.383 0 0 1 545.159 102.918 Q 543.437 102.654 542.456 101.759 Q 541.102 100.524 541.065 99.381 A 1.981 1.981 0 0 1 541.064 99.317 A 6.142 6.142 0 0 1 541.142 98.312 Q 541.294 97.394 541.748 96.778 A 3.875 3.875 0 0 0 543.342 97.496 A 5.52 5.52 0 0 0 544.482 97.608 A 3.765 3.765 0 0 0 547.665 95.995 Q 548.108 95.397 548.442 94.576 A 8.83 8.83 0 0 0 548.535 94.337 Z M 324.609 70.655 L 324.609 55.86 A 9.179 9.179 0 0 0 324.54 54.69 Q 324.362 53.312 323.73 52.54 Q 322.668 51.246 320.704 50.041 A 24.051 24.051 0 0 0 318.652 48.927 A 12.894 12.894 0 0 0 321.532 47.157 A 8.217 8.217 0 0 0 324.609 40.528 L 324.609 35.401 A 9.145 9.145 0 0 0 324.493 33.872 Q 324.034 31.181 321.777 30.909 A 12.24 12.24 0 0 0 321.124 30.851 Q 320.807 30.831 320.446 30.821 A 27.801 27.801 0 0 0 319.678 30.811 A 3.716 3.716 0 0 0 317.469 31.541 A 4.636 4.636 0 0 0 317.334 31.641 Q 316.65 30.714 316.65 29.713 Q 316.65 28.857 317.025 27.823 A 8.887 8.887 0 0 1 317.163 27.467 A 7.109 7.109 0 0 1 318.078 25.885 A 8.954 8.954 0 0 1 318.75 25.099 A 8.971 8.971 0 0 1 321.135 23.296 A 7.706 7.706 0 0 1 324.683 22.462 A 17.725 17.725 0 0 1 327.066 22.613 Q 328.282 22.778 329.304 23.124 A 9.168 9.168 0 0 1 330.322 23.536 Q 333.008 20.509 336.084 20.509 A 6.192 6.192 0 0 1 338.062 20.798 Q 340.817 21.726 340.868 25.633 A 11.377 11.377 0 0 1 340.869 25.782 L 340.869 32.472 Q 345.752 20.46 356.396 20.46 A 12.715 12.715 0 0 1 359.955 20.934 A 9.801 9.801 0 0 1 364.16 23.39 A 9.798 9.798 0 0 1 366.897 28.393 A 14.704 14.704 0 0 1 367.236 31.641 L 367.236 32.325 Q 367.236 32.667 367.139 33.717 A 8.273 8.273 0 0 0 367.103 34.483 A 8.627 8.627 0 0 0 367.212 35.841 A 7.074 7.074 0 0 0 367.371 36.591 Q 367.47 36.954 367.602 37.257 A 3.584 3.584 0 0 0 367.773 37.599 Q 368.237 38.483 369.391 39.041 A 6.041 6.041 0 0 0 369.775 39.21 A 4.199 4.199 0 0 1 368.938 40.825 A 5.766 5.766 0 0 1 368.188 41.578 A 4.526 4.526 0 0 1 366.844 42.378 A 4.035 4.035 0 0 1 365.43 42.628 L 364.502 42.628 A 9.452 9.452 0 0 1 361.006 45.325 A 12.589 12.589 0 0 1 359.18 45.997 A 6.963 6.963 0 0 1 357.756 46.261 A 8.399 8.399 0 0 1 357.056 46.29 A 4.339 4.339 0 0 1 356.013 46.17 A 3.469 3.469 0 0 1 355.054 45.777 Q 354.269 45.306 354.122 44.773 A 0.945 0.945 0 0 1 354.102 44.679 A 1.53 1.53 0 0 0 354.952 43.61 Q 355.024 43.321 355.029 42.968 A 3.68 3.68 0 0 0 355.029 42.921 L 355.029 42.677 A 3.855 3.855 0 0 1 354.75 42.736 Q 354.605 42.761 354.476 42.77 A 1.957 1.957 0 0 1 354.346 42.774 L 353.857 42.774 A 4.021 4.021 0 0 1 351.301 41.856 A 5.36 5.36 0 0 1 350.952 41.554 A 5.7 5.7 0 0 1 349.31 38.664 A 6.966 6.966 0 0 1 349.268 38.477 A 6.438 6.438 0 0 0 349.506 38.482 Q 351.76 38.482 353.502 36.874 A 7.718 7.718 0 0 0 353.857 36.524 Q 355.19 35.154 355.512 33.729 A 4.139 4.139 0 0 0 355.615 32.813 A 7.516 7.516 0 0 0 355.441 31.118 Q 354.905 28.809 352.71 28.406 A 5.551 5.551 0 0 0 351.709 28.321 A 4.952 4.952 0 0 0 349.122 29.108 Q 347.428 30.137 345.722 32.508 A 25.103 25.103 0 0 0 344.922 33.692 A 27.523 27.523 0 0 0 341.828 39.99 A 23.968 23.968 0 0 0 340.869 43.897 L 340.869 70.313 A 6.379 6.379 0 0 0 341.354 71.472 Q 341.724 72.145 342.233 72.609 A 3.742 3.742 0 0 0 342.529 72.852 Q 343.457 73.538 344.95 73.657 A 8.226 8.226 0 0 0 345.605 73.682 A 7.405 7.405 0 0 0 346.767 73.597 Q 347.37 73.501 347.859 73.297 A 3.402 3.402 0 0 0 348.633 72.852 Q 349.018 73.378 349.127 74.257 A 6.071 6.071 0 0 1 349.17 75.001 A 3.322 3.322 0 0 1 348.761 76.571 Q 348.507 77.05 348.096 77.52 A 6.665 6.665 0 0 1 347.876 77.76 A 3.754 3.754 0 0 1 346.535 78.629 Q 345.417 79.073 343.754 79.101 A 13.432 13.432 0 0 1 343.53 79.102 A 11.158 11.158 0 0 1 337.957 77.594 A 13.26 13.26 0 0 1 337.695 77.442 A 6.947 6.947 0 0 1 333.495 79.087 A 8.943 8.943 0 0 1 332.959 79.102 Q 330.176 79.102 327.881 77.54 A 8.742 8.742 0 0 1 322.844 79.102 A 10.565 10.565 0 0 1 322.754 79.102 A 9.779 9.779 0 0 1 321.259 78.996 Q 320.493 78.877 319.885 78.626 A 3.8 3.8 0 0 1 318.579 77.76 Q 317.781 76.931 317.475 76.15 A 2.606 2.606 0 0 1 317.285 75.196 A 7.684 7.684 0 0 1 317.325 74.381 Q 317.415 73.539 317.708 73.029 A 1.871 1.871 0 0 1 317.822 72.852 A 3.875 3.875 0 0 0 319.416 73.571 A 5.52 5.52 0 0 0 320.557 73.682 Q 323.233 73.682 324.297 71.462 A 5.783 5.783 0 0 0 324.609 70.655 Z M 306.836 51.417 L 279.297 55.811 L 279.297 60.499 A 15.176 15.176 0 0 0 279.758 64.342 A 10.835 10.835 0 0 0 282.715 69.483 Q 285.938 72.657 290.869 72.657 A 20.796 20.796 0 0 0 294.219 72.403 Q 296.072 72.1 297.581 71.436 A 10.671 10.671 0 0 0 299.268 70.509 A 7.581 7.581 0 0 0 301.024 68.871 A 5.992 5.992 0 0 0 302.246 65.138 Q 302.246 64.434 302.048 63.572 A 10.307 10.307 0 0 0 302.002 63.38 Q 303.076 61.329 305.957 61.329 A 3.766 3.766 0 0 1 307.399 61.595 Q 308.347 61.984 308.984 62.94 A 4.869 4.869 0 0 1 309.768 64.893 A 6.606 6.606 0 0 1 309.863 66.041 A 7.753 7.753 0 0 1 309.384 68.686 A 9.658 9.658 0 0 1 308.936 69.727 A 11.844 11.844 0 0 1 306.607 72.894 A 13.471 13.471 0 0 1 306.396 73.097 A 18.684 18.684 0 0 1 303.284 75.446 A 21.169 21.169 0 0 1 302.71 75.782 A 25.109 25.109 0 0 1 298.291 77.735 A 31.597 31.597 0 0 1 288.232 79.347 A 27.88 27.88 0 0 1 280.251 78.224 A 25.782 25.782 0 0 1 278.442 77.613 Q 273.877 75.88 270.605 72.755 A 24.7 24.7 0 0 1 264.454 62.988 A 35.263 35.263 0 0 1 262.793 55.86 Q 262.5 53.807 261.883 52.761 A 3.24 3.24 0 0 0 261.67 52.442 A 8.835 8.835 0 0 0 260.438 51.218 Q 259.047 50.065 256.836 48.975 A 10.432 10.432 0 0 0 259.826 47.005 A 8.936 8.936 0 0 0 262.256 42.872 A 20.263 20.263 0 0 0 262.793 40.528 A 21.918 21.918 0 0 1 269.494 27.645 A 29.204 29.204 0 0 1 271.484 25.88 Q 278.711 20.02 287.646 20.02 Q 296.924 20.02 303.711 26.563 A 21.969 21.969 0 0 1 310.735 42.506 A 27.004 27.004 0 0 1 310.742 43.116 A 9.592 9.592 0 0 1 310.718 43.8 A 3.125 3.125 0 0 0 310.71 44.02 Q 310.71 44.184 310.728 44.335 A 2.267 2.267 0 0 0 310.742 44.434 A 0.939 0.939 0 0 0 310.86 44.779 Q 310.998 45.008 311.278 45.108 A 1.26 1.26 0 0 0 311.523 45.167 A 4.321 4.321 0 0 1 312.154 46.252 A 3.554 3.554 0 0 1 312.402 47.559 A 4.035 4.035 0 0 1 312.17 48.978 Q 311.551 50.635 309.277 51.026 A 28.171 28.171 0 0 1 308.832 51.106 Q 308.081 51.234 306.836 51.417 Z M 378.662 70.411 L 378.662 55.372 A 8.312 8.312 0 0 0 378.593 54.256 Q 378.415 52.949 377.783 52.247 A 8.65 8.65 0 0 0 376.809 51.396 Q 375.697 50.548 373.921 49.599 A 42.059 42.059 0 0 0 372.705 48.975 Q 376.123 47.413 377.1 46.436 Q 378.662 44.825 378.662 42.481 L 378.662 14.893 A 10.022 10.022 0 0 0 378.475 12.862 Q 377.834 9.783 375.006 9.386 A 6.371 6.371 0 0 0 374.121 9.327 A 5.46 5.46 0 0 0 372.914 9.454 A 3.853 3.853 0 0 0 371.387 10.157 Q 370.703 9.229 370.703 8.228 Q 370.703 7.227 371.216 6.3 Q 371.729 5.372 372.803 4.591 Q 375.069 2.952 378.524 2.931 A 14.79 14.79 0 0 1 378.613 2.931 A 45.555 45.555 0 0 1 380.611 2.971 Q 382.427 3.051 383.685 3.288 A 11.515 11.515 0 0 1 384.082 3.37 A 11.167 11.167 0 0 1 385.827 1.593 Q 387.159 0.53 388.634 0.176 A 6.432 6.432 0 0 1 390.137 0.001 A 6.47 6.47 0 0 1 392.128 0.281 Q 394.229 0.96 394.803 3.289 A 8.313 8.313 0 0 1 395.02 5.274 L 395.02 42.481 Q 395.02 44.794 396.018 45.823 A 2.544 2.544 0 0 0 396.045 45.85 A 9.325 9.325 0 0 0 397.243 46.876 Q 398.68 47.926 400.977 48.975 A 62.304 62.304 0 0 0 399.505 49.724 Q 397.515 50.773 396.678 51.45 A 3.776 3.776 0 0 0 396.387 51.71 A 5.258 5.258 0 0 0 395.02 55.305 A 6.702 6.702 0 0 0 395.02 55.372 L 395.02 70.411 Q 395.791 72.563 397.301 73.3 A 3.99 3.99 0 0 0 399.072 73.682 A 5.46 5.46 0 0 0 400.28 73.556 A 3.853 3.853 0 0 0 401.807 72.852 Q 402.49 73.78 402.49 75.172 A 2.955 2.955 0 0 1 402.062 76.678 Q 401.807 77.116 401.4 77.54 A 6.333 6.333 0 0 1 401.099 77.833 A 4.363 4.363 0 0 1 399.552 78.723 Q 398.895 78.948 398.092 79.04 A 10.325 10.325 0 0 1 396.924 79.102 Q 394.141 79.102 391.748 77.54 Q 389.746 79.102 386.987 79.102 Q 384.229 79.102 381.934 77.54 Q 379.688 79.102 376.831 79.102 Q 375.042 79.102 373.827 78.604 A 4.177 4.177 0 0 1 372.583 77.833 Q 371.229 76.598 371.192 75.455 A 1.981 1.981 0 0 1 371.191 75.391 A 6.142 6.142 0 0 1 371.269 74.386 Q 371.421 73.468 371.875 72.852 A 3.875 3.875 0 0 0 373.469 73.571 A 5.52 5.52 0 0 0 374.609 73.682 A 3.765 3.765 0 0 0 377.792 72.07 Q 378.235 71.471 378.569 70.65 A 8.83 8.83 0 0 0 378.662 70.411 Z M 17.822 21.925 L 16.309 22.12 A 23.472 23.472 0 0 1 13.523 22.284 A 25.457 25.457 0 0 1 9.595 21.974 A 31.815 31.815 0 0 1 7.593 21.6 Q 5.642 21.165 4.358 20.561 A 8.975 8.975 0 0 1 4.248 20.509 A 8.656 8.656 0 0 1 1.962 18.878 Q 0.192 17.08 0 14.356 A 6.73 6.73 0 0 1 2.169 12.672 A 6.434 6.434 0 0 1 4.98 12.061 A 13.531 13.531 0 0 1 10.545 13.342 Q 14.467 15.103 18.652 19.288 A 27.305 27.305 0 0 1 17.02 15.216 A 22.234 22.234 0 0 1 16.333 12.306 A 63.827 63.827 0 0 1 16.087 10.688 Q 15.846 8.936 15.789 7.666 A 16.454 16.454 0 0 1 15.771 6.934 A 8.591 8.591 0 0 1 16.209 4.107 Q 17.05 1.681 19.512 0.392 A 9.541 9.541 0 0 1 20.361 0.001 A 7.801 7.801 0 0 1 21.98 0.904 A 5.484 5.484 0 0 1 23.73 3.004 A 10.009 10.009 0 0 1 24.477 5.198 A 8.313 8.313 0 0 1 24.658 6.91 A 25.369 25.369 0 0 1 24.624 8.271 Q 24.567 9.333 24.414 10.157 A 30.827 30.827 0 0 1 24.126 11.526 Q 23.964 12.222 23.758 12.985 A 49.615 49.615 0 0 1 23.73 13.087 A 36.44 36.44 0 0 1 22.846 16.037 Q 22.348 17.462 21.77 18.667 A 20.337 20.337 0 0 1 21.484 19.239 Q 26.855 14.259 32.471 12.745 A 14.548 14.548 0 0 1 33.627 12.477 Q 36.018 12.031 37.427 12.745 A 9.805 9.805 0 0 1 39.27 13.944 A 8.285 8.285 0 0 1 40.283 14.942 A 7.499 7.499 0 0 1 39.535 17.601 Q 38.605 19.428 36.597 20.484 Q 33.612 22.054 27.965 22.202 A 46.008 46.008 0 0 1 26.758 22.218 A 52.673 52.673 0 0 1 25.32 22.199 Q 23.315 22.144 22.217 21.925 A 33.134 33.134 0 0 1 26.819 24.891 A 25.392 25.392 0 0 1 30.469 28.321 Q 33.447 31.739 33.447 34.669 Q 33.447 36.72 32.275 38.526 A 9.622 9.622 0 0 1 30.997 38.724 A 12.279 12.279 0 0 1 29.907 38.77 A 3.675 3.675 0 0 1 28.769 38.577 Q 28.307 38.426 27.813 38.159 A 8.517 8.517 0 0 1 27.026 37.672 A 9.987 9.987 0 0 1 25.448 36.299 Q 24.785 35.594 24.166 34.706 A 16.795 16.795 0 0 1 24.072 34.571 A 23.55 23.55 0 0 1 21.315 28.897 A 32.64 32.64 0 0 1 20.02 23.487 A 36.538 36.538 0 0 1 18.696 28.67 Q 16.925 33.863 13.77 36.817 A 7.057 7.057 0 0 1 12.584 37.758 Q 11.426 38.477 10.205 38.477 Q 8.486 38.477 7.479 38.226 A 4.802 4.802 0 0 1 7.324 38.184 Q 6.405 36.576 6.351 34.253 A 12.592 12.592 0 0 1 6.348 33.961 A 5.417 5.417 0 0 1 6.726 32.053 Q 7.321 30.473 8.851 28.644 A 21.805 21.805 0 0 1 9.277 28.15 A 21.453 21.453 0 0 1 12.097 25.536 Q 14.485 23.666 17.822 21.925 Z M 627.637 21.925 L 626.123 22.12 A 23.472 23.472 0 0 1 623.338 22.284 A 25.457 25.457 0 0 1 619.409 21.974 A 31.815 31.815 0 0 1 617.408 21.6 Q 615.456 21.165 614.172 20.561 A 8.975 8.975 0 0 1 614.063 20.509 A 8.656 8.656 0 0 1 611.776 18.878 Q 610.007 17.08 609.814 14.356 A 6.73 6.73 0 0 1 611.983 12.672 A 6.434 6.434 0 0 1 614.795 12.061 A 13.531 13.531 0 0 1 620.359 13.342 Q 624.282 15.103 628.467 19.288 A 27.305 27.305 0 0 1 626.834 15.216 A 22.234 22.234 0 0 1 626.147 12.306 A 63.827 63.827 0 0 1 625.902 10.688 Q 625.66 8.936 625.603 7.666 A 16.454 16.454 0 0 1 625.586 6.934 A 8.591 8.591 0 0 1 626.023 4.107 Q 626.865 1.681 629.327 0.392 A 9.541 9.541 0 0 1 630.176 0.001 A 7.801 7.801 0 0 1 631.794 0.904 A 5.484 5.484 0 0 1 633.545 3.004 A 10.009 10.009 0 0 1 634.292 5.198 A 8.313 8.313 0 0 1 634.473 6.91 A 25.369 25.369 0 0 1 634.438 8.271 Q 634.381 9.333 634.229 10.157 A 30.827 30.827 0 0 1 633.941 11.526 Q 633.779 12.222 633.573 12.985 A 49.615 49.615 0 0 1 633.545 13.087 A 36.44 36.44 0 0 1 632.661 16.037 Q 632.163 17.462 631.584 18.667 A 20.337 20.337 0 0 1 631.299 19.239 Q 636.67 14.259 642.285 12.745 A 14.548 14.548 0 0 1 643.441 12.477 Q 645.833 12.031 647.241 12.745 A 9.805 9.805 0 0 1 649.084 13.944 A 8.285 8.285 0 0 1 650.098 14.942 A 7.499 7.499 0 0 1 649.349 17.601 Q 648.42 19.428 646.411 20.484 Q 643.427 22.054 637.78 22.202 A 46.008 46.008 0 0 1 636.572 22.218 A 52.673 52.673 0 0 1 635.135 22.199 Q 633.13 22.144 632.031 21.925 A 33.134 33.134 0 0 1 636.633 24.891 A 25.392 25.392 0 0 1 640.283 28.321 Q 643.262 31.739 643.262 34.669 Q 643.262 36.72 642.09 38.526 A 9.622 9.622 0 0 1 640.812 38.724 A 12.279 12.279 0 0 1 639.722 38.77 A 3.675 3.675 0 0 1 638.583 38.577 Q 638.121 38.426 637.627 38.159 A 8.517 8.517 0 0 1 636.841 37.672 A 9.987 9.987 0 0 1 635.263 36.299 Q 634.599 35.594 633.98 34.706 A 16.795 16.795 0 0 1 633.887 34.571 A 23.55 23.55 0 0 1 631.129 28.897 A 32.64 32.64 0 0 1 629.834 23.487 A 36.538 36.538 0 0 1 628.51 28.67 Q 626.74 33.863 623.584 36.817 A 7.057 7.057 0 0 1 622.399 37.758 Q 621.241 38.477 620.02 38.477 Q 618.3 38.477 617.294 38.226 A 4.802 4.802 0 0 1 617.139 38.184 Q 616.219 36.576 616.165 34.253 A 12.592 12.592 0 0 1 616.162 33.961 A 5.417 5.417 0 0 1 616.54 32.053 Q 617.135 30.473 618.666 28.644 A 21.805 21.805 0 0 1 619.092 28.15 A 21.453 21.453 0 0 1 621.911 25.536 Q 624.3 23.666 627.637 21.925 Z M 414.892 65.635 A 22.912 22.912 0 0 0 419.58 72.657 Q 426.172 79.347 437.695 79.347 A 31.852 31.852 0 0 0 444.428 78.672 A 21.806 21.806 0 0 0 454.883 73.365 Q 459.113 69.44 461.239 63.128 A 39.283 39.283 0 0 0 462.891 55.86 A 10.102 10.102 0 0 1 463.029 55.108 A 8.3 8.3 0 0 1 464.551 51.807 A 3.285 3.285 0 0 1 464.553 51.805 Q 465.29 50.886 467.355 49.745 A 31.969 31.969 0 0 1 468.848 48.975 A 12.698 12.698 0 0 1 468.48 48.8 A 10.546 10.546 0 0 1 464.209 45.02 A 5.13 5.13 0 0 1 463.981 44.61 Q 463.271 43.191 462.891 40.528 Q 461.621 31.788 454.639 25.977 A 25.257 25.257 0 0 0 447.298 21.702 A 27.815 27.815 0 0 0 437.5 20.02 A 25.626 25.626 0 0 0 420.752 25.904 A 28.838 28.838 0 0 0 420.64 25.996 A 22.577 22.577 0 0 0 412.305 40.528 A 20.263 20.263 0 0 1 411.768 42.872 A 8.936 8.936 0 0 1 409.338 47.005 A 10.432 10.432 0 0 1 406.348 48.975 Q 408.664 50.117 409.988 51.235 A 7.085 7.085 0 0 1 410.986 52.247 A 5.62 5.62 0 0 1 411.211 52.543 A 4.76 4.76 0 0 1 411.89 53.907 A 5.172 5.172 0 0 1 411.972 54.217 Q 412.216 55.244 412.549 57.862 A 19.094 19.094 0 0 0 412.904 59.8 Q 413.193 61.034 413.661 62.425 A 43.804 43.804 0 0 0 414.722 65.235 A 26.093 26.093 0 0 0 414.892 65.635 Z M 482.03 65.635 A 22.912 22.912 0 0 0 486.719 72.657 Q 493.311 79.347 504.834 79.347 A 31.852 31.852 0 0 0 511.566 78.672 A 21.806 21.806 0 0 0 522.021 73.365 Q 526.251 69.44 528.378 63.128 A 39.283 39.283 0 0 0 530.029 55.86 A 10.102 10.102 0 0 1 530.168 55.108 A 8.3 8.3 0 0 1 531.689 51.807 A 3.285 3.285 0 0 1 531.691 51.805 Q 532.429 50.886 534.494 49.745 A 31.969 31.969 0 0 1 535.986 48.975 A 12.698 12.698 0 0 1 535.619 48.8 A 10.546 10.546 0 0 1 531.348 45.02 A 5.13 5.13 0 0 1 531.12 44.61 Q 530.41 43.191 530.029 40.528 Q 528.76 31.788 521.777 25.977 A 25.257 25.257 0 0 0 514.437 21.702 A 27.815 27.815 0 0 0 504.639 20.02 A 25.626 25.626 0 0 0 487.891 25.904 A 28.838 28.838 0 0 0 487.779 25.996 A 22.577 22.577 0 0 0 479.443 40.528 A 20.263 20.263 0 0 1 478.906 42.872 A 8.936 8.936 0 0 1 476.477 47.005 A 10.432 10.432 0 0 1 473.486 48.975 Q 475.803 50.117 477.127 51.235 A 7.085 7.085 0 0 1 478.125 52.247 A 5.62 5.62 0 0 1 478.35 52.543 A 4.76 4.76 0 0 1 479.028 53.907 A 5.172 5.172 0 0 1 479.111 54.217 Q 479.355 55.244 479.688 57.862 A 19.094 19.094 0 0 0 480.043 59.8 Q 480.332 61.034 480.8 62.425 A 43.804 43.804 0 0 0 481.86 65.235 A 26.093 26.093 0 0 0 482.03 65.635 Z M 429.297 39.112 L 429.297 60.743 A 24.647 24.647 0 0 0 429.612 64.874 Q 430.909 72.462 437.549 72.462 Q 444.627 72.462 445.705 64.041 A 26.058 26.058 0 0 0 445.898 60.743 L 445.898 39.112 Q 445.898 26.905 437.598 26.905 A 7.783 7.783 0 0 0 433.367 28.002 Q 430.279 29.946 429.534 35.334 A 27.69 27.69 0 0 0 429.297 39.112 Z M 496.436 39.112 L 496.436 60.743 A 24.647 24.647 0 0 0 496.75 64.874 Q 498.047 72.462 504.688 72.462 Q 511.766 72.462 512.843 64.041 A 26.058 26.058 0 0 0 513.037 60.743 L 513.037 39.112 Q 513.037 26.905 504.736 26.905 A 7.783 7.783 0 0 0 500.505 28.002 Q 497.418 29.946 496.673 35.334 A 27.69 27.69 0 0 0 496.436 39.112 Z M 213.965 40.089 L 213.965 62.647 A 9.612 9.612 0 0 0 216.602 69.434 A 9.859 9.859 0 0 0 218.588 71.103 A 7.095 7.095 0 0 0 222.412 72.218 A 7.861 7.861 0 0 0 226.445 71.238 Q 229.608 69.39 230.344 64.052 A 26.141 26.141 0 0 0 230.566 60.499 L 230.566 39.112 A 24.696 24.696 0 0 0 230.38 35.982 Q 229.971 32.787 228.662 30.689 Q 226.823 27.743 223.528 27.641 A 7.698 7.698 0 0 0 223.291 27.638 A 8.498 8.498 0 0 0 219.127 28.629 Q 217.296 29.637 216.042 31.668 A 13.933 13.933 0 0 0 214.746 34.474 Q 214.072 36.497 213.979 39.212 A 25.846 25.846 0 0 0 213.965 40.089 Z M 564.99 40.089 L 564.99 62.647 A 9.612 9.612 0 0 0 567.627 69.434 A 9.859 9.859 0 0 0 569.613 71.103 A 7.095 7.095 0 0 0 573.437 72.218 A 7.861 7.861 0 0 0 577.47 71.238 Q 580.634 69.39 581.369 64.052 A 26.141 26.141 0 0 0 581.592 60.499 L 581.592 39.112 A 24.696 24.696 0 0 0 581.406 35.982 Q 580.997 32.787 579.688 30.689 Q 577.849 27.743 574.553 27.641 A 7.698 7.698 0 0 0 574.316 27.638 A 8.498 8.498 0 0 0 570.152 28.629 Q 568.321 29.637 567.068 31.668 A 13.933 13.933 0 0 0 565.771 34.474 Q 565.097 36.497 565.005 39.212 A 25.846 25.846 0 0 0 564.99 40.089 Z M 61.963 58.839 L 61.963 65.186 Q 63.881 64.427 64.426 60.625 A 20.871 20.871 0 0 0 64.6 58.79 A 182.447 182.447 0 0 0 64.706 55.793 Q 64.844 50.904 64.844 43.653 A 6085.566 6085.566 0 0 0 64.843 39.733 Q 64.839 34.797 64.827 32.175 A 458.643 458.643 0 0 0 64.819 30.787 A 518.99 518.99 0 0 0 64.806 29.266 Q 64.786 27.405 64.756 26.061 A 151.765 151.765 0 0 0 64.746 25.636 A 59.552 59.552 0 0 0 64.665 23.651 Q 64.484 20.61 64.009 19.32 A 2.498 2.498 0 0 0 63.696 18.702 A 8.566 8.566 0 0 0 63.166 18.05 Q 62.59 17.414 62.045 17.131 A 2.42 2.42 0 0 0 61.963 17.091 A 763.916 763.916 0 0 1 61.942 22.948 Q 61.865 32.933 61.5 35.721 A 6.54 6.54 0 0 1 61.377 36.427 A 3.889 3.889 0 0 1 59.848 38.37 Q 59.107 38.879 58.057 39.21 Q 60.205 39.962 60.988 40.95 A 2.063 2.063 0 0 1 61.377 41.7 Q 61.877 43.702 61.95 54.789 A 617.248 617.248 0 0 1 61.963 58.839 Z M 383.35 61.964 L 383.35 65.138 A 4.302 4.302 0 0 0 384.743 63.602 Q 385.526 62.222 385.83 59.947 A 19.874 19.874 0 0 0 385.937 58.936 A 79.606 79.606 0 0 0 386.06 56.715 A 108.503 108.503 0 0 0 386.133 54.249 A 2903.965 2903.965 0 0 1 386.156 53.048 Q 386.188 51.386 386.206 50.562 A 165.881 165.881 0 0 0 386.217 50.048 Q 386.23 49.338 386.23 48.936 A 23.299 23.299 0 0 0 386.23 48.927 L 386.23 44.532 Q 386.23 42.845 386.188 40.733 A 268.619 268.619 0 0 0 386.182 40.431 L 386.182 35.645 Q 386.041 23.252 385.722 21.385 A 2.492 2.492 0 0 0 385.693 21.241 A 11.3 11.3 0 0 0 385.232 19.669 Q 384.936 18.893 384.547 18.308 A 4.168 4.168 0 0 0 383.35 17.091 L 383.35 33.546 A 783.061 783.061 0 0 1 383.346 35.933 Q 383.322 43.797 383.13 44.801 Q 382.91 45.948 382.764 46.485 Q 382.386 47.786 380.207 48.69 A 12.307 12.307 0 0 1 379.443 48.975 Q 382.373 50.001 382.764 51.417 A 11.462 11.462 0 0 1 382.992 52.723 Q 383.269 54.919 383.332 59.265 A 188.959 188.959 0 0 1 383.35 61.964 Z M 104.639 65.186 L 104.639 58.839 Q 104.639 45.85 104.834 44.166 A 39.651 39.651 0 0 1 104.932 43.386 Q 105.077 42.322 105.221 41.809 A 3.727 3.727 0 0 1 105.225 41.798 Q 105.571 40.449 107.225 39.618 A 8.01 8.01 0 0 1 108.203 39.21 A 4.907 4.907 0 0 1 106.679 38.46 A 4.189 4.189 0 0 1 105.225 36.427 Q 104.726 34.432 104.652 21.822 A 806.911 806.911 0 0 1 104.639 17.091 A 3.78 3.78 0 0 0 102.741 19.065 Q 102.439 19.741 102.295 20.606 Q 101.898 23.206 101.82 27.732 A 124.918 124.918 0 0 0 101.807 28.736 A 766.529 766.529 0 0 0 101.785 31.789 Q 101.761 36.462 101.758 44.222 A 5609.287 5609.287 0 0 0 101.758 46.095 A 673.271 673.271 0 0 0 101.77 50.285 Q 101.815 57.487 102.029 59.763 A 9.55 9.55 0 0 0 102.1 60.352 Q 102.734 64.454 104.639 65.186 Z M 202.1 63.429 L 202.1 79.395 A 4.646 4.646 0 0 0 203.575 77.676 Q 204.38 76.149 204.624 73.664 A 20.817 20.817 0 0 0 204.688 72.852 A 246.91 246.91 0 0 0 204.764 70.206 Q 204.796 68.849 204.819 67.336 A 433.745 433.745 0 0 0 204.834 66.309 A 52684.151 52684.151 0 0 0 204.868 63.392 Q 204.936 57.534 204.956 55.689 A 502.747 502.747 0 0 0 204.971 54.079 Q 204.98 52.815 204.98 51.807 L 204.98 47.95 A 59.265 59.265 0 0 0 204.979 47.537 Q 204.974 46.882 204.956 46.021 A 718.226 718.226 0 0 1 204.932 44.825 A 908.84 908.84 0 0 1 204.907 43.531 Q 204.883 42.188 204.785 40.919 A 50.45 50.45 0 0 0 204.651 38.966 Q 204.401 36.175 203.889 34.963 A 3.217 3.217 0 0 0 203.735 34.644 Q 202.93 33.204 202.1 32.667 L 202.1 35.597 Q 202.1 44.093 201.733 45.533 Q 201.457 46.619 200.931 47.303 A 3.088 3.088 0 0 1 200.562 47.706 A 4.569 4.569 0 0 1 199.851 48.228 Q 199.468 48.459 198.993 48.666 A 10.747 10.747 0 0 1 198.193 48.975 Q 201.123 50.001 201.514 51.417 Q 202.098 53.558 202.1 63.365 A 338.097 338.097 0 0 1 202.1 63.429 Z M 553.125 63.429 L 553.125 79.395 A 4.646 4.646 0 0 0 554.601 77.676 Q 555.406 76.149 555.65 73.664 A 20.817 20.817 0 0 0 555.713 72.852 A 246.91 246.91 0 0 0 555.789 70.206 Q 555.821 68.849 555.845 67.336 A 433.745 433.745 0 0 0 555.859 66.309 A 52684.151 52684.151 0 0 0 555.893 63.392 Q 555.962 57.534 555.981 55.689 A 502.747 502.747 0 0 0 555.996 54.079 Q 556.006 52.815 556.006 51.807 L 556.006 47.95 A 59.265 59.265 0 0 0 556.004 47.537 Q 556 46.882 555.981 46.021 A 718.226 718.226 0 0 1 555.957 44.825 A 908.84 908.84 0 0 1 555.933 43.531 Q 555.908 42.188 555.811 40.919 A 50.45 50.45 0 0 0 555.677 38.966 Q 555.426 36.175 554.915 34.963 A 3.217 3.217 0 0 0 554.761 34.644 Q 553.955 33.204 553.125 32.667 L 553.125 35.597 Q 553.125 44.093 552.759 45.533 Q 552.483 46.619 551.957 47.303 A 3.088 3.088 0 0 1 551.587 47.706 A 4.569 4.569 0 0 1 550.876 48.228 Q 550.494 48.459 550.018 48.666 A 10.747 10.747 0 0 1 549.219 48.975 Q 552.148 50.001 552.539 51.417 Q 553.123 53.558 553.125 63.365 A 338.097 338.097 0 0 1 553.125 63.429 Z M 151.855 53.956 L 142.871 32.667 A 2.953 2.953 0 0 0 142.291 33.151 Q 141.756 33.743 141.772 34.522 Q 141.793 35.448 141.846 36.025 A 8.49 8.49 0 0 0 141.87 36.256 Q 141.943 36.866 142.139 37.696 A 16.243 16.243 0 0 0 142.415 38.57 Q 142.756 39.562 143.334 40.946 A 80.879 80.879 0 0 0 143.921 42.31 A 74.27 74.27 0 0 1 144.38 43.374 Q 145.262 45.469 145.335 46.098 A 1.183 1.183 0 0 1 145.337 46.119 A 1.764 1.764 0 0 1 145.345 46.289 Q 145.345 46.847 145.002 47.481 A 4.379 4.379 0 0 1 144.824 47.779 Q 144.238 48.682 143.408 48.975 A 10.833 10.833 0 0 1 144.782 49.319 Q 146.256 49.803 146.927 50.63 A 2.501 2.501 0 0 1 147.266 51.173 A 19.528 19.528 0 0 1 147.455 51.563 Q 147.766 52.223 148.242 53.321 L 151.563 60.743 Q 152.539 62.989 153.613 65.186 Q 155.615 62.745 151.855 53.956 Z M 421.338 65.186 A 2.228 2.228 0 0 0 421.698 64.836 Q 422.021 64.436 422.021 63.966 A 6.906 6.906 0 0 0 421.97 63.158 Q 421.92 62.739 421.823 62.258 A 17.552 17.552 0 0 0 421.582 61.231 A 131.119 131.119 0 0 1 420.754 57.894 Q 419.665 53.226 419.586 50.91 A 10.226 10.226 0 0 1 419.58 50.562 Q 419.58 48.087 419.713 46.508 A 20.176 20.176 0 0 1 419.775 45.875 A 63.082 63.082 0 0 1 420.264 42.481 A 100.927 100.927 0 0 1 420.828 39.726 Q 421.105 38.469 421.391 37.352 A 58.609 58.609 0 0 1 421.582 36.622 Q 421.961 35.19 422.013 34.557 A 2.231 2.231 0 0 0 422.021 34.376 A 3.17 3.17 0 0 0 421.961 33.736 Q 421.819 33.045 421.338 32.667 A 13.213 13.213 0 0 0 419.63 35.32 Q 418.995 36.603 418.515 38.15 A 24.706 24.706 0 0 0 418.213 39.21 A 239.044 239.044 0 0 0 417.462 42.149 Q 416.882 44.483 416.455 46.436 A 1.941 1.941 0 0 1 416.037 47.291 Q 415.538 47.915 414.477 48.516 A 12.491 12.491 0 0 1 413.574 48.975 Q 416.198 50.19 416.453 51.405 A 1.321 1.321 0 0 1 416.455 51.417 A 168.243 168.243 0 0 0 417.215 54.74 Q 418.27 59.128 419.071 61.114 A 9.161 9.161 0 0 0 419.434 61.915 A 60.184 60.184 0 0 0 419.992 62.962 Q 420.789 64.417 421.338 65.186 Z M 488.477 65.186 A 2.228 2.228 0 0 0 488.837 64.836 Q 489.16 64.436 489.16 63.966 A 6.906 6.906 0 0 0 489.108 63.158 Q 489.059 62.739 488.962 62.258 A 17.552 17.552 0 0 0 488.721 61.231 A 131.119 131.119 0 0 1 487.892 57.894 Q 486.804 53.226 486.725 50.91 A 10.226 10.226 0 0 1 486.719 50.562 Q 486.719 48.087 486.851 46.508 A 20.176 20.176 0 0 1 486.914 45.875 A 63.082 63.082 0 0 1 487.402 42.481 A 100.927 100.927 0 0 1 487.967 39.726 Q 488.244 38.469 488.529 37.352 A 58.609 58.609 0 0 1 488.721 36.622 Q 489.1 35.19 489.152 34.557 A 2.231 2.231 0 0 0 489.16 34.376 A 3.17 3.17 0 0 0 489.1 33.736 Q 488.957 33.045 488.477 32.667 A 13.213 13.213 0 0 0 486.769 35.32 Q 486.134 36.603 485.654 38.15 A 24.706 24.706 0 0 0 485.352 39.21 A 239.044 239.044 0 0 0 484.601 42.149 Q 484.021 44.483 483.594 46.436 A 1.941 1.941 0 0 1 483.176 47.291 Q 482.677 47.915 481.615 48.516 A 12.491 12.491 0 0 1 480.713 48.975 Q 483.337 50.19 483.591 51.405 A 1.321 1.321 0 0 1 483.594 51.417 A 168.243 168.243 0 0 0 484.354 54.74 Q 485.409 59.128 486.21 61.114 A 9.161 9.161 0 0 0 486.572 61.915 A 60.184 60.184 0 0 0 487.131 62.962 Q 487.927 64.417 488.477 65.186 Z M 271.338 65.186 A 2.228 2.228 0 0 0 271.698 64.836 Q 272.021 64.436 272.021 63.966 A 6.906 6.906 0 0 0 271.97 63.158 Q 271.92 62.739 271.823 62.258 A 17.552 17.552 0 0 0 271.582 61.231 A 131.119 131.119 0 0 1 270.754 57.894 Q 269.665 53.226 269.586 50.91 A 10.226 10.226 0 0 1 269.58 50.562 Q 269.58 48.087 269.713 46.508 A 20.176 20.176 0 0 1 269.775 45.875 Q 269.971 44.19 270.313 42.481 A 84.34 84.34 0 0 1 270.844 39.726 Q 271.109 38.469 271.392 37.352 A 49.27 49.27 0 0 1 271.582 36.622 Q 271.961 35.19 272.013 34.557 A 2.231 2.231 0 0 0 272.021 34.376 A 3.17 3.17 0 0 0 271.961 33.736 Q 271.819 33.045 271.338 32.667 A 13.213 13.213 0 0 0 269.63 35.32 Q 268.995 36.603 268.515 38.15 A 24.706 24.706 0 0 0 268.213 39.21 A 239.044 239.044 0 0 0 267.462 42.149 Q 266.882 44.483 266.455 46.436 A 1.941 1.941 0 0 1 266.037 47.291 Q 265.538 47.915 264.477 48.516 A 12.491 12.491 0 0 1 263.574 48.975 Q 266.198 50.19 266.453 51.405 A 1.321 1.321 0 0 1 266.455 51.417 A 168.243 168.243 0 0 0 267.215 54.74 Q 268.27 59.128 269.071 61.114 A 9.161 9.161 0 0 0 269.434 61.915 A 60.184 60.184 0 0 0 269.992 62.962 Q 270.789 64.417 271.338 65.186 Z M 332.178 49.806 L 332.178 48.487 A 53.898 53.898 0 0 0 332.176 48.095 Q 332.172 47.556 332.158 46.845 A 159.551 159.551 0 0 0 332.153 46.607 A 505.646 505.646 0 0 1 332.13 45.427 Q 332.117 44.762 332.104 44.019 Q 332.08 42.579 332.031 41.212 A 56.253 56.253 0 0 0 331.879 39.164 Q 331.562 35.819 330.933 34.693 Q 330.127 33.253 329.297 32.716 L 329.297 35.89 Q 329.297 43.723 328.963 45.389 A 2.892 2.892 0 0 1 328.931 45.533 A 5.921 5.921 0 0 1 328.627 46.437 Q 328.288 47.217 327.759 47.682 A 4.673 4.673 0 0 1 327.057 48.183 Q 326.373 48.589 325.391 48.927 Q 327.539 49.679 328.322 50.667 A 2.063 2.063 0 0 1 328.711 51.417 A 11.462 11.462 0 0 1 328.939 52.723 Q 329.217 54.919 329.279 59.265 A 188.959 188.959 0 0 1 329.297 61.964 L 329.297 65.138 A 4.571 4.571 0 0 0 330.844 63.363 Q 331.614 61.878 331.812 59.506 A 18.23 18.23 0 0 0 331.836 59.181 Q 332.023 56.751 332.081 55.222 A 37.164 37.164 0 0 0 332.104 54.371 A 582.786 582.786 0 0 1 332.123 53.216 Q 332.138 52.314 332.153 51.612 A 146.064 146.064 0 0 0 332.164 51.078 Q 332.176 50.425 332.177 49.955 A 42.292 42.292 0 0 0 332.178 49.806 Z M 235.254 32.667 L 235.254 65.186 A 3.108 3.108 0 0 0 236.783 63.852 Q 237.526 62.657 237.825 60.526 A 20.302 20.302 0 0 0 237.988 58.79 A 413.232 413.232 0 0 0 238.095 56.231 Q 238.232 52.656 238.232 50.66 Q 238.232 48.063 238.209 46.303 A 176.278 176.278 0 0 0 238.208 46.217 A 305.314 305.314 0 0 0 238.147 43.004 A 336.856 336.856 0 0 0 238.135 42.53 Q 237.944 35.554 237.051 34.282 A 1.145 1.145 0 0 0 237.012 34.229 A 8.824 8.824 0 0 0 236.445 33.577 Q 235.836 32.947 235.273 32.676 A 2.549 2.549 0 0 0 235.254 32.667 Z M 586.279 32.667 L 586.279 65.186 A 3.108 3.108 0 0 0 587.808 63.852 Q 588.551 62.657 588.851 60.526 A 20.302 20.302 0 0 0 589.014 58.79 A 413.232 413.232 0 0 0 589.12 56.231 Q 589.258 52.656 589.258 50.66 Q 589.258 48.063 589.235 46.303 A 176.278 176.278 0 0 0 589.233 46.217 A 305.314 305.314 0 0 0 589.172 43.004 A 336.856 336.856 0 0 0 589.16 42.53 Q 588.969 35.554 588.077 34.282 A 1.145 1.145 0 0 0 588.037 34.229 A 8.824 8.824 0 0 0 587.47 33.577 Q 586.862 32.947 586.298 32.676 A 2.549 2.549 0 0 0 586.279 32.667 Z M 450.586 32.667 L 450.586 65.186 A 3.075 3.075 0 0 0 452.108 63.852 Q 452.842 62.657 453.124 60.526 A 20.185 20.185 0 0 0 453.271 58.79 Q 453.564 53.321 453.564 50.66 Q 453.564 48.063 453.541 46.303 A 176.278 176.278 0 0 0 453.54 46.217 A 305.314 305.314 0 0 0 453.479 43.004 A 336.856 336.856 0 0 0 453.467 42.53 Q 453.276 35.554 452.383 34.282 A 1.145 1.145 0 0 0 452.344 34.229 A 8.824 8.824 0 0 0 451.777 33.577 Q 451.169 32.947 450.605 32.676 A 2.549 2.549 0 0 0 450.586 32.667 Z M 517.725 32.667 L 517.725 65.186 A 3.075 3.075 0 0 0 519.247 63.852 Q 519.981 62.657 520.263 60.526 A 20.185 20.185 0 0 0 520.41 58.79 Q 520.703 53.321 520.703 50.66 Q 520.703 48.063 520.68 46.303 A 176.278 176.278 0 0 0 520.679 46.217 A 305.314 305.314 0 0 0 520.617 43.004 A 336.856 336.856 0 0 0 520.605 42.53 Q 520.414 35.554 519.522 34.282 A 1.145 1.145 0 0 0 519.482 34.229 A 8.824 8.824 0 0 0 518.916 33.577 Q 518.307 32.947 517.744 32.676 A 2.549 2.549 0 0 0 517.725 32.667 Z M 279.297 49.903 L 293.457 47.608 L 293.457 33.936 A 13.031 13.031 0 0 0 293.357 32.259 Q 293.111 30.376 292.268 29.299 A 3.816 3.816 0 0 0 292.188 29.2 A 11.131 11.131 0 0 0 290.963 27.978 Q 289.341 26.612 287.744 26.612 A 12.136 12.136 0 0 0 286.199 26.705 Q 285.411 26.806 284.745 27.019 A 6.228 6.228 0 0 0 284.082 27.271 A 6.342 6.342 0 0 0 281.977 28.822 A 7.757 7.757 0 0 0 281.543 29.347 Q 279.416 32.167 279.303 37.963 A 33.867 33.867 0 0 0 279.297 38.624 L 279.297 49.903 Z M 297.656 46.876 L 300.684 46.388 L 300.684 44.874 A 86.417 86.417 0 0 0 300.63 41.72 Q 300.453 36.895 299.687 34.862 A 3.625 3.625 0 0 0 299.17 33.888 A 5.018 5.018 0 0 0 298.45 33.167 A 3.926 3.926 0 0 0 297.656 32.667 L 297.656 46.876 Z" vector-effect="non-scaling-stroke"/></g></svg>